<?xml version="1.0"?>
<svg xmlns="http://www.w3.org/2000/svg" xmlns:xlink="http://www.w3.org/1999/xlink" xmlns:svgjs="http://svgjs.com/svgjs" version="1.1" width="512" height="512" x="0" y="0" viewBox="0 0 48 48" style="enable-background:new 0 0 512 512" xml:space="preserve" class=""><g><g xmlns="http://www.w3.org/2000/svg" id="Line"><path d="M35,2H13A11,11,0,0,0,2,13V35A11,11,0,0,0,13,46H35A11,11,0,0,0,46,35V13A11,11,0,0,0,35,2Zm9,33a9,9,0,0,1-9,9H13a9,9,0,0,1-9-9V13a9,9,0,0,1,9-9H35a9,9,0,0,1,9,9Z" fill="#2b2942" data-original="#000000" style=""/><path d="M32,10H26.4A7.41,7.41,0,0,0,19,17.4V20H16a1,1,0,0,0-1,1v6a1,1,0,0,0,1,1h3v9a1,1,0,0,0,1,1h6a1,1,0,0,0,1-1V28h5a1,1,0,0,0,1-1V21a1,1,0,0,0-1-1H27V18.6a.6.6,0,0,1,.6-.6H32a1,1,0,0,0,1-1V11A1,1,0,0,0,32,10Zm-1,6H27.6A2.61,2.61,0,0,0,25,18.6V21a1,1,0,0,0,1,1h5v4H26a1,1,0,0,0-1,1v9H21V27a1,1,0,0,0-1-1H17V22h3a1,1,0,0,0,1-1V17.4A5.4,5.4,0,0,1,26.4,12H31Z" fill="#2b2942" data-original="#000000" style=""/><path d="M34,6H14a8,8,0,0,0-8,8V34a8,8,0,0,0,8,8H34a8,8,0,0,0,8-8V14A8,8,0,0,0,34,6Zm6,28a6,6,0,0,1-6,6H14a6,6,0,0,1-6-6V14a6,6,0,0,1,6-6H34a6,6,0,0,1,6,6Z" fill="#2b2942" data-original="#000000" style=""/></g></g></svg>
