<?xml version="1.0"?>
<svg xmlns="http://www.w3.org/2000/svg" xmlns:xlink="http://www.w3.org/1999/xlink" xmlns:svgjs="http://svgjs.com/svgjs" version="1.1" width="512" height="512" x="0" y="0" viewBox="0 0 48 48" style="enable-background:new 0 0 512 512" xml:space="preserve" class=""><g><g xmlns="http://www.w3.org/2000/svg" id="Line"><path d="M35,2H13A11,11,0,0,0,2,13V35A11,11,0,0,0,13,46H35A11,11,0,0,0,46,35V13A11,11,0,0,0,35,2Zm9,33a9,9,0,0,1-9,9H13a9,9,0,0,1-9-9V13a9,9,0,0,1,9-9H35a9,9,0,0,1,9,9Z" fill="#2b2942" data-original="#000000" style="" class=""/><path d="M34,6H14a8,8,0,0,0-8,8V34a8,8,0,0,0,8,8H34a8,8,0,0,0,8-8V14A8,8,0,0,0,34,6Zm6,28a6,6,0,0,1-6,6H14a6,6,0,0,1-6-6V14a6,6,0,0,1,6-6H34a6,6,0,0,1,6,6Z" fill="#2b2942" data-original="#000000" style="" class=""/><path d="M24,11c-7.85,0-14,4.77-14,10.86a10.15,10.15,0,0,0,4.05,7.83l-2,6A1,1,0,0,0,13,37a1,1,0,0,0,.49-.13L21,32.72A16.7,16.7,0,0,0,24,33c7.72,0,14-5,14-11.14S31.85,11,24,11Zm0,20a15,15,0,0,1-3-.31,1.07,1.07,0,0,0-.68.11l-5.54,3.08,1.41-4.24a1,1,0,0,0-.36-1.13A8.22,8.22,0,0,1,12,21.86c0-5,5.27-8.86,12-8.86s12,3.89,12,8.86S30.62,31,24,31Z" fill="#2b2942" data-original="#000000" style="" class=""/><path d="M31.68,18.05l-5.6,1.87-3.63-1.81a1,1,0,0,0-1.16.18l-6,6a1,1,0,0,0-.14,1.24A1,1,0,0,0,16,26a1.19,1.19,0,0,0,.32-.05L22,24.06l4.66,1.87a1,1,0,0,0,1.14-.29l5-6a1,1,0,0,0-1.09-1.59Zm-5,5.75-4.33-1.73A.94.94,0,0,0,22,22a1.19,1.19,0,0,0-.32.05l-2,.66,2.5-2.49,3.35,1.67a1,1,0,0,0,.77.06L29,21.06Z" fill="#2b2942" data-original="#000000" style="" class=""/></g></g></svg>
