<?xml version="1.0"?>
<svg xmlns="http://www.w3.org/2000/svg" xmlns:xlink="http://www.w3.org/1999/xlink" xmlns:svgjs="http://svgjs.com/svgjs" version="1.1" width="512" height="512" x="0" y="0" viewBox="0 0 48 48" style="enable-background:new 0 0 512 512" xml:space="preserve" class=""><g><g xmlns="http://www.w3.org/2000/svg" id="Line"><path d="m35 2h-22a11 11 0 0 0 -11 11v22a11 11 0 0 0 11 11h22a11 11 0 0 0 11-11v-22a11 11 0 0 0 -11-11zm9 33a9 9 0 0 1 -9 9h-22a9 9 0 0 1 -9-9v-22a9 9 0 0 1 9-9h22a9 9 0 0 1 9 9z" fill="#2b2942" data-original="#000000" style=""/><path d="m35 10a3 3 0 1 0 3 3 3 3 0 0 0 -3-3zm0 4a1 1 0 1 1 1-1 1 1 0 0 1 -1 1z" fill="#2b2942" data-original="#000000" style=""/><path d="m34 6h-20a8 8 0 0 0 -8 8v20a8 8 0 0 0 8 8h20a8 8 0 0 0 8-8v-20a8 8 0 0 0 -8-8zm6 28a6 6 0 0 1 -6 6h-20a6 6 0 0 1 -6-6v-20a6 6 0 0 1 6-6h20a6 6 0 0 1 6 6z" fill="#2b2942" data-original="#000000" style=""/><path d="m24 13a11 11 0 1 0 11 11 11 11 0 0 0 -11-11zm0 20a9 9 0 1 1 9-9 9 9 0 0 1 -9 9z" fill="#2b2942" data-original="#000000" style=""/><path d="m24 17a7 7 0 1 0 7 7 7 7 0 0 0 -7-7zm0 12a5 5 0 1 1 5-5 5 5 0 0 1 -5 5z" fill="#2b2942" data-original="#000000" style=""/></g></g></svg>
