<?xml version="1.0" encoding="utf-8"?>
<!-- Generator: Adobe Illustrator 25.0.0, SVG Export Plug-In . SVG Version: 6.00 Build 0)  -->
<svg version="1.1" id="Main_Logo_Black" xmlns="http://www.w3.org/2000/svg" xmlns:xlink="http://www.w3.org/1999/xlink" x="0px"
	 y="0px" viewBox="0 0 300 47" style="enable-background:new 0 0 300 47;" xml:space="preserve">
<style type="text/css">
	.st0{fill:#FFFFFF;}
</style>
<g id="Logo_Elements">
	<path id="x_-_Offerbox_Logo_1_" class="st0" d="M290,43.4l-6.1-9l-6.3,9c-0.9,1.3-1.7,2.2-2.3,2.7c-0.6,0.5-1.4,0.8-2.4,0.8
		c-1.1,0-2-0.3-2.7-1c-0.8-0.7-1.1-1.4-1.1-2.3s0.6-2.2,1.7-3.8l7.7-11l-6.8-9.1c-1.2-1.5-1.8-2.8-1.8-3.9c0-0.9,0.4-1.6,1.1-2.3
		c0.7-0.6,1.6-1,2.7-1c1,0,1.8,0.3,2.5,0.8c0.7,0.6,1.4,1.4,2.3,2.6l5.5,7.5l5.3-7.5c0.9-1.2,1.7-2.1,2.3-2.7
		c0.7-0.5,1.5-0.8,2.4-0.8c1.1,0,2,0.3,2.8,0.9s1.1,1.4,1.1,2.3c0,0.6-0.2,1.3-0.5,1.8c-0.3,0.6-0.8,1.3-1.4,2.1l-6.8,9.1l7.7,11
		c1.2,1.7,1.8,3,1.8,3.9s-0.4,1.7-1.1,2.3c-0.8,0.6-1.7,1-2.7,1c-1,0-1.8-0.3-2.5-0.8C291.6,45.5,290.9,44.7,290,43.4z"/>
	<path id="x_-_Offerbox_Logo" class="st0" d="M257,43.4l-6.1-9l-6.3,9c-0.9,1.3-1.7,2.2-2.3,2.7c-0.6,0.5-1.4,0.8-2.4,0.8
		c-1.1,0-2-0.3-2.7-1c-0.8-0.7-1.1-1.4-1.1-2.3s0.6-2.2,1.7-3.8l7.7-11l-6.8-9.1c-1.2-1.5-1.8-2.8-1.8-3.9c0-0.9,0.4-1.6,1.1-2.3
		c0.7-0.6,1.6-1,2.7-1c1,0,1.8,0.3,2.5,0.8c0.7,0.6,1.4,1.4,2.3,2.6l5.5,7.5l5.3-7.5c0.9-1.2,1.7-2.1,2.3-2.7
		c0.7-0.5,1.5-0.8,2.4-0.8c1.1,0,2,0.3,2.8,0.9s1.1,1.4,1.1,2.3c0,0.6-0.2,1.3-0.5,1.8c-0.3,0.6-0.8,1.3-1.4,2.1l-6.8,9.1l7.7,11
		c1.2,1.7,1.8,3,1.8,3.9s-0.4,1.7-1.1,2.3c-0.8,0.6-1.7,1-2.7,1c-1,0-1.8-0.3-2.5-0.8C258.6,45.5,257.8,44.7,257,43.4z"/>
	<path id="o_-_Offerbox_Logo" class="st0" d="M233.6,29.8c0,2.5-0.4,4.8-1.2,7c-0.8,2.1-1.9,4-3.4,5.5c-1.5,1.5-3.2,2.7-5.3,3.5
		c-2.1,0.8-4.4,1.2-7,1.2c-2.6,0-4.9-0.4-6.9-1.2c-2-0.8-3.8-2-5.3-3.6c-1.5-1.5-2.6-3.3-3.4-5.4c-0.8-2.1-1.2-4.4-1.2-7
		c0-2.6,0.4-4.9,1.2-7c0.8-2.1,1.9-4,3.4-5.4c1.5-1.5,3.2-2.7,5.3-3.5c2.1-0.8,4.4-1.2,6.9-1.2c2.6,0,4.9,0.4,7,1.2
		c2.1,0.8,3.9,2,5.4,3.5c1.5,1.5,2.6,3.3,3.4,5.4C233.2,24.9,233.6,27.2,233.6,29.8z M225.1,29.8c0-3.5-0.8-6.1-2.3-8.1
		c-1.5-1.9-3.6-2.9-6.1-2.9c-1.7,0-3.1,0.4-4.4,1.3c-1.3,0.9-2.2,2.1-2.9,3.8c-0.7,1.7-1,3.6-1,5.8s0.3,4.1,1,5.8
		c0.7,1.7,1.6,2.9,2.9,3.8c1.3,0.9,2.7,1.3,4.4,1.3c2.6,0,4.6-1,6.1-2.9C224.3,35.8,225.1,33.2,225.1,29.8z"/>
	<path id="b_-_Offerbox_Logo" class="st0" d="M170.1,4.8v12.9c1.6-1.7,3.2-2.9,4.9-3.8c1.7-0.9,3.7-1.3,6.1-1.3c2.8,0,5.3,0.7,7.4,2
		c2.1,1.3,3.8,3.2,4.9,5.8c1.2,2.5,1.7,5.5,1.7,9c0,2.6-0.3,4.9-1,7.1c-0.7,2.1-1.6,4-2.8,5.6c-1.2,1.6-2.7,2.8-4.5,3.6
		c-1.8,0.9-3.7,1.3-5.8,1.3c-1.3,0-2.5-0.2-3.7-0.5c-1.1-0.3-2.1-0.7-2.9-1.2c-0.8-0.5-1.5-1-2.1-1.6s-1.3-1.3-2.2-2.4v0.8
		c0,1.6-0.4,2.8-1.2,3.6c-0.8,0.8-1.7,1.2-2.9,1.2c-1.2,0-2.1-0.4-2.9-1.2c-0.7-0.8-1.1-2-1.1-3.6V5.2c0-1.7,0.4-3,1-3.9
		s1.7-1.3,2.9-1.3c1.3,0,2.3,0.4,3,1.3C169.7,2.1,170.1,3.3,170.1,4.8z M170.5,29.9c0,3.4,0.8,5.9,2.3,7.8c1.5,1.8,3.6,2.7,6,2.7
		c2.1,0,4-0.9,5.5-2.8c1.5-1.8,2.3-4.5,2.3-7.9c0-2.2-0.3-4.2-1-5.8c-0.6-1.6-1.5-2.8-2.7-3.7c-1.2-0.9-2.5-1.3-4.1-1.3
		c-1.6,0-3,0.4-4.3,1.3s-2.2,2.1-3,3.8C170.9,25.7,170.5,27.7,170.5,29.9z"/>
	<path id="r_-_Offerbox_Logo" class="st0" d="M142.9,34.7v7.1c0,1.7-0.4,3-1.2,3.9c-0.8,0.9-1.8,1.3-3.1,1.3c-1.2,0-2.2-0.4-3-1.3
		c-0.8-0.9-1.2-2.1-1.2-3.8V18.3c0-3.8,1.4-5.7,4.1-5.7c1.4,0,2.4,0.5,3,1.3c0.6,0.9,1,2.2,1,3.9c1-1.7,2-3,3.1-3.9
		c1.1-0.9,2.5-1.3,4.3-1.3c1.8,0,3.5,0.5,5.2,1.3c1.7,0.9,2.5,2.1,2.5,3.5c0,1-0.4,1.9-1.1,2.5c-0.7,0.7-1.5,1-2.3,1
		c-0.3,0-1.1-0.2-2.2-0.6c-1.2-0.4-2.2-0.6-3.1-0.6c-1.2,0-2.2,0.3-3,1s-1.4,1.6-1.8,2.9c-0.4,1.3-0.7,2.8-0.9,4.6
		C143,30,142.9,32.2,142.9,34.7z"/>
	<path id="e_-_Offerbox_Logo" class="st0" d="M120.4,31.8h-16.5c0,1.9,0.4,3.6,1.2,5.1c0.8,1.5,1.8,2.6,3,3.3
		c1.3,0.8,2.6,1.1,4.1,1.1c1,0,1.9-0.1,2.8-0.4s1.6-0.6,2.4-1.1c0.8-0.5,1.5-1.1,2.2-1.6c0.7-0.6,1.5-1.4,2.6-2.3
		c0.4-0.4,1.1-0.6,1.9-0.6c0.9,0,1.6,0.2,2.1,0.7c0.5,0.5,0.8,1.1,0.8,2c0,0.8-0.3,1.7-0.9,2.7c-0.6,1-1.5,2-2.7,2.9
		s-2.7,1.7-4.6,2.3c-1.8,0.6-3.9,0.9-6.3,0.9c-5.4,0-9.6-1.5-12.7-4.6c-3-3.1-4.5-7.3-4.5-12.6c0-2.5,0.4-4.8,1.1-7s1.8-4,3.2-5.5
		s3.2-2.7,5.3-3.5c2.1-0.8,4.4-1.2,6.9-1.2c3.3,0,6.1,0.7,8.5,2.1c2.4,1.4,4.1,3.2,5.3,5.4c1.2,2.2,1.8,4.5,1.8,6.8
		c0,2.1-0.6,3.5-1.8,4.1C124.4,31.5,122.6,31.8,120.4,31.8z M103.9,27h15.3c-0.2-2.9-1-5.1-2.3-6.5c-1.4-1.4-3.1-2.1-5.3-2.1
		c-2.1,0-3.8,0.7-5.2,2.2C105,22,104.2,24.2,103.9,27z"/>
	<path id="f_-_Offerbox_Logo" class="st0" d="M75.9,13.3h2v-2.5c0-2.6,0.3-4.7,1-6.3c0.7-1.6,1.8-2.7,3.4-3.4
		C83.9,0.4,86.1,0,88.9,0c4.9,0,7.4,1.2,7.4,3.6c0,0.8-0.3,1.5-0.8,2s-1.1,0.8-1.8,0.8c-0.3,0-0.9-0.1-1.7-0.2
		c-0.8-0.1-1.5-0.2-2-0.2c-1.5,0-2.5,0.5-2.9,1.3c-0.4,0.9-0.7,2.2-0.7,3.9v2h2.1c3.2,0,4.8,1,4.8,2.9c0,1.4-0.4,2.3-1.3,2.6
		c-0.9,0.4-2,0.6-3.6,0.6h-2.1v22.4c0,1.7-0.4,2.9-1.2,3.8C84.3,46.5,83.3,47,82,47c-1.2,0-2.2-0.4-3-1.3c-0.8-0.9-1.2-2.1-1.2-3.8
		V19.4h-2.3c-1.3,0-2.2-0.3-2.9-0.9s-1-1.3-1-2.2C71.6,14.3,73.1,13.3,75.9,13.3z"/>
	<path id="f_-_Offerboxx" class="st0" d="M52.4,13.3h2v-2.5c0-2.6,0.3-4.7,1-6.3c0.7-1.6,1.8-2.7,3.4-3.4C60.5,0.4,62.6,0,65.4,0
		c4.9,0,7.4,1.2,7.4,3.6c0,0.8-0.3,1.5-0.8,2c-0.5,0.6-1.1,0.8-1.8,0.8c-0.3,0-0.9-0.1-1.7-0.2c-0.8-0.1-1.5-0.2-2-0.2
		c-1.5,0-2.5,0.5-2.9,1.3c-0.4,0.9-0.7,2.2-0.7,3.9v2h2.1c3.2,0,4.8,1,4.8,2.9c0,1.4-0.4,2.3-1.3,2.6c-0.9,0.4-2,0.6-3.6,0.6h-2.1
		v22.4c0,1.7-0.4,2.9-1.2,3.8c-0.8,0.9-1.8,1.3-3.1,1.3c-1.2,0-2.2-0.4-3-1.3c-0.8-0.9-1.2-2.1-1.2-3.8V19.4h-2.3
		c-1.3,0-2.2-0.3-2.9-0.9c-0.7-0.6-1-1.3-1-2.2C48.2,14.3,49.6,13.3,52.4,13.3z"/>
	<g id="O_-_Offerboxx">
		<path class="st0" d="M23.4,12.1c-3.6,0-6.4,2.9-6.4,6.4s2.9,6.4,6.4,6.4c3.6,0,6.4-2.9,6.4-6.4C29.8,15,26.9,12.1,23.4,12.1z"/>
		<path class="st0" d="M43.2,11c-1.7-3.5-4.3-6.2-7.7-8.1S28.1,0,23.4,0c-3.5,0-6.6,0.6-9.3,1.6s-5,2.6-6.9,4.7s-3.3,4.5-4.4,7.4
			s-1.5,6.1-1.5,9.6c0,3.4,0.5,6.6,1.4,9.5c1,2.9,2.4,5.4,4.3,7.5c1.9,2.1,4.2,3.7,7,4.8c2.8,1.1,6,1.7,9.5,1.7
			c3.6,0,6.8-0.6,9.5-1.7c2.8-1.1,5.1-2.7,7-4.8c1.9-2.1,3.3-4.6,4.3-7.5c1-2.9,1.4-6,1.4-9.6C45.8,18.7,44.9,14.5,43.2,11z
			 M34.8,25l-0.1,0.2c-0.3,0.5-0.6,1-1,1.4L23.6,41l-9.9-14.3c-1.9-2.2-3-5.1-3-8.2c0-7.1,5.8-12.8,12.9-12.8
			c7.1,0,12.9,5.7,12.9,12.8C36.5,20.9,35.9,23,34.8,25L34.8,25z"/>
	</g>
</g>
</svg>
