<svg xmlns="http://www.w3.org/2000/svg" width="1919.996" height="525.001" viewBox="0 0 1919.996 525.001">
  <g id="Group_47" data-name="Group 47" transform="translate(-0.001)">
    <path id="Subtraction_4" data-name="Subtraction 4" d="M10960,1193c-43.626,0-87.692-.373-130.976-1.11-42.917-.729-86.142-1.832-128.475-3.277-42.039-1.433-84.314-3.239-125.653-5.368-41.058-2.111-82.279-4.6-122.521-7.384-159.085-11.013-311.285-27.227-452.374-48.19V668h1920v459.67c-30.4,4.516-61.509,8.842-92.479,12.859-51.484,6.683-105.01,12.842-159.092,18.307-54.521,5.507-110.78,10.426-167.214,14.62-57.075,4.24-115.758,7.844-174.418,10.712-59.414,2.9-120.214,5.118-180.712,6.588C11084.642,1192.246,11022.034,1193,10960,1193Z" transform="translate(-9999.999 -668)" fill="#5956e9"/>
    <g id="Group_44" data-name="Group 44">
      <g id="Group_25" data-name="Group 25" transform="translate(0 9)">
        <g id="Ellipse_3" data-name="Ellipse 3" transform="translate(293 150)" fill="none" stroke="#eeeefd" stroke-width="3" opacity="0.399">
          <circle cx="16" cy="16" r="16" stroke="none"/>
          <circle cx="16" cy="16" r="14.5" fill="none"/>
        </g>
        <g id="Ellipse_4" data-name="Ellipse 4" transform="translate(278 144)" fill="none" stroke="#eeeefd" stroke-width="3">
          <circle cx="16" cy="16" r="16" stroke="none"/>
          <circle cx="16" cy="16" r="14.5" fill="none"/>
        </g>
      </g>
      <g id="Group_26" data-name="Group 26" transform="translate(1257 254)">
        <g id="Ellipse_3-2" data-name="Ellipse 3" transform="translate(293 150)" fill="none" stroke="#eeeefd" stroke-width="3" opacity="0.399">
          <circle cx="16" cy="16" r="16" stroke="none"/>
          <circle cx="16" cy="16" r="14.5" fill="none"/>
        </g>
        <g id="Ellipse_4-2" data-name="Ellipse 4" transform="translate(278 144)" fill="none" stroke="#eeeefd" stroke-width="3">
          <circle cx="16" cy="16" r="16" stroke="none"/>
          <circle cx="16" cy="16" r="14.5" fill="none"/>
        </g>
      </g>
      <g id="Group_27" data-name="Group 27" transform="translate(530.745 969.65) rotate(-135)">
        <g id="Polygon_1" data-name="Polygon 1" transform="translate(460 303)" fill="none">
          <path d="M18.718,1.5a1,1,0,0,1,1.732,0L38.3,32.447a1,1,0,0,1-.866,1.5H1.731a1,1,0,0,1-.866-1.5Z" stroke="none"/>
          <path d="M 19.58444404602051 6.003337860107422 L 5.194229125976562 30.94637107849121 L 33.97465515136719 30.94637107849121 L 19.58444404602051 6.003337860107422 M 19.58444404602051 1.001110076904297 C 19.92133140563965 1.001110076904297 20.25821685791016 1.167873382568359 20.45062637329102 1.501392364501953 L 38.30366516113281 32.44665145874023 C 38.68828582763672 33.11331176757812 38.20714569091797 33.94637298583984 37.43747711181641 33.94637298583984 L 1.731407165527344 33.94637298583984 C 0.9617576599121094 33.94637298583984 0.4806060791015625 33.11331176757812 0.8652267456054688 32.44665145874023 L 18.7182559967041 1.501392364501953 C 18.91067123413086 1.167873382568359 19.24755859375 1.001110076904297 19.58444404602051 1.001110076904297 Z" stroke="none" fill="#eeeefd"/>
        </g>
        <g id="Polygon_2" data-name="Polygon 2" transform="translate(471.751 309.528)" fill="none" opacity="0.449">
          <path d="M18.718,1.5a1,1,0,0,1,1.732,0L38.3,32.447a1,1,0,0,1-.866,1.5H1.731a1,1,0,0,1-.866-1.5Z" stroke="none"/>
          <path d="M 19.58444404602051 6.003337860107422 L 5.194229125976562 30.94637107849121 L 33.97465515136719 30.94637107849121 L 19.58444404602051 6.003337860107422 M 19.58444404602051 1.001110076904297 C 19.92133140563965 1.001110076904297 20.25821685791016 1.167873382568359 20.45062637329102 1.501392364501953 L 38.30366516113281 32.44665145874023 C 38.68828582763672 33.11331176757812 38.20714569091797 33.94637298583984 37.43747711181641 33.94637298583984 L 1.731407165527344 33.94637298583984 C 0.9617576599121094 33.94637298583984 0.4806060791015625 33.11331176757812 0.8652267456054688 32.44665145874023 L 18.7182559967041 1.501392364501953 C 18.91067123413086 1.167873382568359 19.24755859375 1.001110076904297 19.58444404602051 1.001110076904297 Z" stroke="none" fill="#eeeefd"/>
        </g>
      </g>
      <g id="Group_28" data-name="Group 28" transform="translate(868.375 405.617) rotate(-60)">
        <g id="Polygon_1-2" data-name="Polygon 1" transform="translate(460 303)" fill="none" stroke-linecap="round">
          <path d="M18.718,1.5a1,1,0,0,1,1.732,0L38.3,32.447a1,1,0,0,1-.866,1.5H1.731a1,1,0,0,1-.866-1.5Z" stroke="none"/>
          <path d="M 19.58444404602051 6.003337860107422 L 5.194229125976562 30.94637107849121 L 33.97465515136719 30.94637107849121 L 19.58444404602051 6.003337860107422 M 19.58444404602051 1.001110076904297 C 19.92133140563965 1.001110076904297 20.25821685791016 1.167873382568359 20.45062637329102 1.501392364501953 L 38.30366516113281 32.44665145874023 C 38.68828582763672 33.11331176757812 38.20714569091797 33.94637298583984 37.43747711181641 33.94637298583984 L 1.731407165527344 33.94637298583984 C 0.9617576599121094 33.94637298583984 0.4806060791015625 33.11331176757812 0.8652267456054688 32.44665145874023 L 18.7182559967041 1.501392364501953 C 18.91067123413086 1.167873382568359 19.24755859375 1.001110076904297 19.58444404602051 1.001110076904297 Z" stroke="none" fill="#eeeefd"/>
        </g>
        <g id="Polygon_2-2" data-name="Polygon 2" transform="translate(471.751 309.528)" fill="none" stroke-linecap="round" opacity="0.449">
          <path d="M18.718,1.5a1,1,0,0,1,1.732,0L38.3,32.447a1,1,0,0,1-.866,1.5H1.731a1,1,0,0,1-.866-1.5Z" stroke="none"/>
          <path d="M 19.58444404602051 6.003337860107422 L 5.194229125976562 30.94637107849121 L 33.97465515136719 30.94637107849121 L 19.58444404602051 6.003337860107422 M 19.58444404602051 1.001110076904297 C 19.92133140563965 1.001110076904297 20.25821685791016 1.167873382568359 20.45062637329102 1.501392364501953 L 38.30366516113281 32.44665145874023 C 38.68828582763672 33.11331176757812 38.20714569091797 33.94637298583984 37.43747711181641 33.94637298583984 L 1.731407165527344 33.94637298583984 C 0.9617576599121094 33.94637298583984 0.4806060791015625 33.11331176757812 0.8652267456054688 32.44665145874023 L 18.7182559967041 1.501392364501953 C 18.91067123413086 1.167873382568359 19.24755859375 1.001110076904297 19.58444404602051 1.001110076904297 Z" stroke="none" fill="#eeeefd"/>
        </g>
      </g>
      <g id="Group_29" data-name="Group 29" transform="translate(611.191 257.191)">
        <line id="Line_1" data-name="Line 1" x2="18.557" y2="18.557" transform="translate(549.031 197.031)" fill="none" stroke="#eeeefd" stroke-linecap="round" stroke-width="3"/>
        <line id="Line_2" data-name="Line 2" x1="18.557" y2="18.557" transform="translate(549.031 197.031)" fill="none" stroke="#eeeefd" stroke-linecap="round" stroke-width="3"/>
      </g>
      <g id="Group_31" data-name="Group 31" transform="translate(832.191 105.332)" opacity="0.457">
        <line id="Line_1-2" data-name="Line 1" x2="13.416" y2="13.416" transform="translate(549.031 197.031)" fill="none" stroke="#eeeefd" stroke-linecap="round" stroke-width="3"/>
        <line id="Line_2-2" data-name="Line 2" x1="13.416" y2="13.416" transform="translate(549.031 197.031)" fill="none" stroke="#eeeefd" stroke-linecap="round" stroke-width="3"/>
      </g>
      <g id="Group_34" data-name="Group 34" transform="translate(89.191 219.332)" opacity="0.457">
        <line id="Line_1-3" data-name="Line 1" x2="13.416" y2="13.416" transform="translate(549.031 197.031)" fill="none" stroke="#eeeefd" stroke-linecap="round" stroke-width="3"/>
        <line id="Line_2-3" data-name="Line 2" x1="13.416" y2="13.416" transform="translate(549.031 197.031)" fill="none" stroke="#eeeefd" stroke-linecap="round" stroke-width="3"/>
      </g>
      <g id="Group_30" data-name="Group 30" transform="translate(74 -93)">
        <line id="Line_1-4" data-name="Line 1" x2="12.939" y2="12.939" transform="translate(549.031 197.031)" fill="none" stroke="#eeeefd" stroke-linecap="round" stroke-width="3"/>
        <line id="Line_2-4" data-name="Line 2" x1="12.939" y2="12.939" transform="translate(549.031 197.031)" fill="none" stroke="#eeeefd" stroke-linecap="round" stroke-width="3"/>
      </g>
      <g id="Group_32" data-name="Group 32" transform="translate(0 24)">
        <g id="Rectangle_7" data-name="Rectangle 7" transform="translate(448 223)" fill="none" stroke="#eeeefd" stroke-width="3">
          <rect width="24" height="24" rx="2" stroke="none"/>
          <rect x="1.5" y="1.5" width="21" height="21" rx="0.5" fill="none"/>
        </g>
        <g id="Rectangle_8" data-name="Rectangle 8" transform="translate(458 231)" fill="none" stroke="#eeeefd" stroke-width="3" opacity="0.446">
          <rect width="24" height="24" rx="2" stroke="none"/>
          <rect x="1.5" y="1.5" width="21" height="21" rx="0.5" fill="none"/>
        </g>
      </g>
      <g id="Group_33" data-name="Group 33" transform="translate(620.798 162.52) rotate(-30)">
        <g id="Rectangle_7-2" data-name="Rectangle 7" transform="translate(448 223)" fill="none" stroke="#eeeefd" stroke-width="3">
          <rect width="24" height="24" rx="2" stroke="none"/>
          <rect x="1.5" y="1.5" width="21" height="21" rx="0.5" fill="none"/>
        </g>
        <g id="Rectangle_8-2" data-name="Rectangle 8" transform="translate(458 231)" fill="none" stroke="#eeeefd" stroke-width="3" opacity="0.446">
          <rect width="24" height="24" rx="2" stroke="none"/>
          <rect x="1.5" y="1.5" width="21" height="21" rx="0.5" fill="none"/>
        </g>
      </g>
    </g>
  </g>
</svg>
