<?xml version="1.0"?>
<svg xmlns="http://www.w3.org/2000/svg" xmlns:xlink="http://www.w3.org/1999/xlink" xmlns:svgjs="http://svgjs.com/svgjs" version="1.1" width="512" height="512" x="0" y="0" viewBox="0 0 32 32" style="enable-background:new 0 0 512 512" xml:space="preserve" class=""><g><path xmlns="http://www.w3.org/2000/svg" d="m26 32h-20c-3.314 0-6-2.686-6-6v-20c0-3.314 2.686-6 6-6h20c3.314 0 6 2.686 6 6v20c0 3.314-2.686 6-6 6z" fill="#2b2942" data-original="#e3f8fa" style="" class=""/><path xmlns="http://www.w3.org/2000/svg" d="m8 15.407c0 2.331 1.163 4.41 2.981 5.768v2.825l2.724-1.495c.727.201 1.497.31 2.295.31 4.418 0 8-3.316 8-7.407s-3.582-7.408-8-7.408-8 3.316-8 7.407zm7.156-2.074 2.087 2.173 3.925-2.173-4.373 4.642-2.036-2.172-3.976 2.173z" fill="#ffffff" data-original="#26c6da" style="" class=""/></g></svg>
