<?xml version="1.0" encoding="utf-8"?>
<!-- Generator: Adobe Illustrator 25.0.0, SVG Export Plug-In . SVG Version: 6.00 Build 0)  -->
<svg version="1.1" id="Layer_1" xmlns="http://www.w3.org/2000/svg" xmlns:xlink="http://www.w3.org/1999/xlink" x="0px" y="0px"
	 viewBox="0 0 512 512" style="enable-background:new 0 0 512 512;" xml:space="preserve">
<style type="text/css">
	.st0{fill:#EEEEFD;}
	.st1{fill:#5956E9;}
	.st2{fill:#001738;}
</style>
<g id="Twotone">
	<g id="Color">
		<path class="st0" d="M344,136h80v352h-80V136z"/>
		<path class="st1" d="M344,136h40v352h-40V136z"/>
		<path class="st0" d="M344,424v64H72V136h72v176c0,61.9,50.1,112,112,112H344z"/>
		<path class="st1" d="M384,440l-40,48h80L384,440z"/>
		<path class="st1" d="M384,184l-40-48h80L384,184z"/>
		<g>
			<circle class="st1" cx="136" cy="200" r="24"/>
			<circle class="st1" cx="280" cy="200" r="24"/>
			<path class="st1" d="M285.1,338.9L224,400l-61.1-61.1c-14.3-14.7-14-38.1,0.7-52.4c14.4-14,37.3-14,51.7,0l8.7,8.8l8.7-8.7
				c14.7-14.3,38.1-14,52.4,0.7C299.2,301.5,299.2,324.5,285.1,338.9L285.1,338.9z"/>
		</g>
		<path class="st1" d="M208.8,359.2L168,400l-40.8-40.8c-9.6-9.6-9.6-25.3,0-34.9s25.3-9.6,34.9,0l5.8,5.8l5.8-5.8
			c9.6-9.7,25.3-9.7,35,0C218.4,333.9,218.4,349.5,208.8,359.2L208.8,359.2z"/>
	</g>
	<g id="Stroke_Close_copy">
		<path class="st2" d="M424,128h-72V96c0.1-44.1-35.7-79.9-79.8-80c-11.1,0-22,2.3-32.2,6.7C199.6,5,152.5,23.4,134.7,63.8
			C130.3,74,128,84.9,128,96v32H72c-4.4,0-8,3.6-8,8v352c0,4.4,3.6,8,8,8h352c4.4,0,8-3.6,8-8V136C432,131.6,428.4,128,424,128z
			 M352,158.1l24,28.8v250.2l-24,28.8V158.1z M384,171.5L361.1,144h45.8L384,171.5z M384,452.5l22.9,27.5h-45.8L384,452.5z
			 M392,437.1V186.9l24-28.8v307.8L392,437.1z M272,32c35.3,0,64,28.7,64,64v32h-48V96c0-24.3-11.1-47.3-30.1-62.4
			C262.6,32.5,267.3,32,272,32z M240,40.7c19.8,11.4,32,32.5,32,55.3v32h-64V96C208,73.2,220.2,52.1,240,40.7z M144,96
			c-0.1-35.2,28.4-63.9,63.6-64c4.9,0,9.7,0.5,14.4,1.6C203.1,48.7,192,71.7,192,96v32h-48V96z M80,144h48v25.1
			c-17.1,4.4-27.4,21.9-23,39c4.4,17.1,21.9,27.4,39,23c17.1-4.4,27.4-21.9,23-39c-2.9-11.3-11.7-20.1-23-23V144h128v25.1
			c-17.1,4.4-27.4,21.9-23,39c4.4,17.1,21.9,27.4,39,23c17.1-4.4,27.4-21.9,23-39c-2.9-11.3-11.7-20.1-23-23V144h48v336H80V144z
			 M128,213.8c-7.6-4.3-10.3-14-5.9-21.6c1.4-2.5,3.4-4.5,5.9-5.9V213.8z M144,186.2c7.6,4.3,10.3,14,5.9,21.6
			c-1.4,2.5-3.4,4.5-5.9,5.9V186.2z M272,213.8c-7.6-4.3-10.3-14-5.9-21.6c1.4-2.5,3.4-4.5,5.9-5.9V213.8z M288,186.2
			c7.6,4.3,10.3,14,5.9,21.6c-1.4,2.5-3.4,4.5-5.9,5.9V186.2z"/>
		<path class="st2" d="M296,432H120c-4.4,0-8,3.6-8,8s3.6,8,8,8h176c4.4,0,8-3.6,8-8S300.4,432,296,432z"/>
		<path class="st2" d="M162.3,405.7c3.1,3.1,8.2,3.1,11.3,0l22.3-22.3l22.3,22.3c3.1,3.1,8.2,3.1,11.3,0l61.2-61.1
			c17.3-17.9,16.8-46.4-1.1-63.7c-17.5-16.8-45.1-16.8-62.6,0l-3.1,3.1l-3.1-3.1c-17.5-17.6-46-17.7-63.6-0.2
			c-7.7,7.6-12.3,17.7-13.1,28.5c-18,0.2-32.5,15-32.2,33.1c0.1,8.5,3.5,16.7,9.6,22.7L162.3,405.7z M168.5,292.1
			c11.4-11.3,29.7-11.3,41.1,0l8.7,8.7c3.2,3,8.1,3,11.3,0l8.7-8.7c11.5-11.2,29.9-11,41.1,0.5c11,11.3,11,29.3,0,40.6L224,388.7
			L207.3,372l7.1-7.1c12.8-12.8,12.8-33.5,0-46.3c-12.8-12.8-33.5-12.8-46.3,0l-0.2,0.2l-0.2-0.2c-2.2-2.2-4.8-4-7.5-5.4
			C160,305.3,163,297.7,168.5,292.1z M132.9,330c6.5-6.5,17.1-6.5,23.6,0l5.8,5.8c3.1,3.1,8.2,3.1,11.3,0l5.8-5.8
			c6.5-6.5,17.1-6.5,23.6,0c6.5,6.5,6.5,17.1,0,23.6L168,388.7l-35.1-35.1C126.4,347.1,126.4,336.5,132.9,330L132.9,330z"/>
	</g>
</g>
<rect x="537.2" class="st0" width="65.6" height="65.6"/>
<rect x="537.2" y="82" class="st1" width="65.6" height="65.6"/>
<rect x="537.2" y="164" class="st2" width="65.6" height="65.6"/>
</svg>
