<?xml version="1.0"?>
<svg xmlns="http://www.w3.org/2000/svg" xmlns:xlink="http://www.w3.org/1999/xlink" xmlns:svgjs="http://svgjs.com/svgjs" version="1.1" width="512" height="512" x="0" y="0" viewBox="0 0 64 64" style="enable-background:new 0 0 512 512" xml:space="preserve" class=""><g><g xmlns="http://www.w3.org/2000/svg" id="Twotone"><g id="Color_copy_2" data-name="Color copy 2"><path d="m58 35a5.962 5.962 0 0 0 -2.3-4.71 5.984 5.984 0 0 0 -3.63-8.72 5.934 5.934 0 0 0 -6.64-6.64 5.947 5.947 0 0 0 -3.48-3.95 5.314 5.314 0 0 0 -.56-.2 3.546 3.546 0 0 0 -.22 2.12 3.576 3.576 0 0 0 -3.18.92 6.982 6.982 0 0 1 4.68 4.86l1.81 6.76a2 2 0 0 1 1.04 3.87l-.65.17c.02.05.04.11.06.16a5.969 5.969 0 0 0 1.84 2.42 6 6 0 0 0 0 5.88 5.969 5.969 0 0 0 -1.84 2.42 5.9 5.9 0 0 0 -.4 3.03 5.806 5.806 0 0 0 -4.14 4.14 5.9 5.9 0 0 0 -3.03.4 5.969 5.969 0 0 0 -2.42 1.84 6 6 0 0 0 -5.88 0 5.969 5.969 0 0 0 -2.42-1.84 5.9 5.9 0 0 0 -3.03-.4 5.806 5.806 0 0 0 -4.14-4.14 5.9 5.9 0 0 0 -.4-3.03 5.969 5.969 0 0 0 -1.84-2.42 6 6 0 0 0 0-5.88 5.969 5.969 0 0 0 1.84-2.42 5.024 5.024 0 0 0 .27-.83l-1.86-.5a2 2 0 0 1 1.04-3.87l1.81-6.76a6.97 6.97 0 0 1 4.2-4.69 3.475 3.475 0 0 0 -1.7-.09 3.546 3.546 0 0 0 -.22-2.12 5.314 5.314 0 0 0 -.56.2 5.947 5.947 0 0 0 -3.48 3.95 5.934 5.934 0 0 0 -6.64 6.64 5.984 5.984 0 0 0 -3.63 8.72 5.973 5.973 0 0 0 0 9.42 5.984 5.984 0 0 0 3.63 8.72 5.934 5.934 0 0 0 6.64 6.64 5.984 5.984 0 0 0 8.72 3.63 5.973 5.973 0 0 0 9.42 0 5.984 5.984 0 0 0 8.72-3.63 5.934 5.934 0 0 0 6.64-6.64 5.984 5.984 0 0 0 3.63-8.72 5.962 5.962 0 0 0 2.3-4.71zm-24.91-25.9a5.99 5.99 0 0 0 -2.18 0 3.564 3.564 0 0 0 1.09.74 3.564 3.564 0 0 0 1.09-.74z" fill="#5956e9" data-original="#79bd9a" style="" class=""/><path d="m45.43 55.07a.88.88 0 0 1 -.05.15c.12-.04.25-.08.37-.12z" fill="#eeeefd" data-original="#7ab92d" style="" class=""/><g fill="#cff09e"><path d="m26.89 31.83-3.71-1a2.979 2.979 0 0 0 2.1 2.08 2.91 2.91 0 0 0 1.01.09 3 3 0 0 1 -5.2-2.69 2.881 2.881 0 0 1 .43-.92l5.46 1.46a3.29 3.29 0 0 1 -.09.98z" fill="#eeeefd" data-original="#cff09e" style="" class=""/><path d="m32.11 14.62a6.943 6.943 0 0 0 -3.21-1.89 7.093 7.093 0 0 0 -1.81-.24 7.017 7.017 0 0 0 -6.76 5.19l-1.81 6.76 12.07 3.24-1.44-5.37a6.983 6.983 0 0 1 2.96-7.69zm-5.06 9.18a7 7 0 0 1 -3.72-8.12c.03-.1.07-.2.1-.3a3.68 3.68 0 0 1 .59.45.985.985 0 0 0 -.02.17 3 3 0 0 0 3 3 2.9 2.9 0 0 0 .28 1.25 6.964 6.964 0 0 0 -.23 3.55z" fill="#eeeefd" data-original="#cff09e" style="" class=""/><path d="m32.91 28.55-1.95.52a2.005 2.005 0 0 0 -1.49 1.94 2.236 2.236 0 0 0 .07.51c0 .01 0 .01.01.02l-12.07-3.23a2 2 0 0 1 -1.48-1.93 1.861 1.861 0 0 1 .07-.52 1.986 1.986 0 0 1 1.49-1.43 1.986 1.986 0 0 0 1.42 2.38l9.52 2.55-.64-2.41 4.18 1.12a2.06 2.06 0 0 1 .87.48z" fill="#eeeefd" data-original="#cff09e" style="" class=""/><path d="m41.28 33.66a1.735 1.735 0 0 0 .36-.13 3 3 0 0 1 -5.52-.67 2.91 2.91 0 0 1 -.09-1.01l5.46-1.46a3.015 3.015 0 0 1 .41.89l-3.93 1.05a2.974 2.974 0 0 0 3.31 1.33z" fill="#eeeefd" data-original="#cff09e" style="" class=""/><path d="m44.48 25.44-13.52 3.63-1.81-6.76a7 7 0 0 1 4.95-8.58 7.093 7.093 0 0 1 1.81-.24 7.337 7.337 0 0 1 .81.05 3 3 0 0 1 -1.72 5.46 2.987 2.987 0 0 1 -1.95 2.8 6.979 6.979 0 0 0 6.58 1.65l4.03-1.08z" fill="#eeeefd" data-original="#cff09e" style="" class=""/><path d="m47 27.38a2 2 0 0 1 -1.48 1.93l-13.53 3.62a2.005 2.005 0 0 1 -2.45-1.41 2.236 2.236 0 0 1 -.07-.51 1.993 1.993 0 0 1 1.02-1.74 1.843 1.843 0 0 0 .05.25 2.005 2.005 0 0 0 2.45 1.41l13.53-3.62a1.859 1.859 0 0 0 .46-.19 1.184 1.184 0 0 1 .02.26z" fill="#eeeefd" data-original="#cff09e" style="" class=""/></g><path d="m34.1 5.828a3.6 3.6 0 0 0 4.243-2.828l.284.284a3.606 3.606 0 0 0 4.162.675l.5-.252-.252.5a3.606 3.606 0 0 0 .675 4.162l.288.288a3.6 3.6 0 0 0 -2.828 4.243 3.606 3.606 0 0 0 -4.243 2.829l-4.95-.707-.707-4.95a3.606 3.606 0 0 0 2.828-4.244z" fill="#5956e9" data-original="#79bd9a" style="" class=""/><path d="m29.9 5.828a3.6 3.6 0 0 1 -4.243-2.828l-.284.284a3.606 3.606 0 0 1 -4.162.675l-.5-.252.252.5a3.606 3.606 0 0 1 -.675 4.162l-.288.288a3.6 3.6 0 0 1 2.828 4.243 3.606 3.606 0 0 1 4.243 2.829l4.95-.707.707-4.95a3.606 3.606 0 0 1 -2.828-4.244z" fill="#5956e9" data-original="#79bd9a" style="" class=""/><circle cx="29" cy="14" fill="#eeeefd" r="3" data-original="#a8dba8" style="" class=""/><circle cx="35" cy="14" fill="#eeeefd" r="3" data-original="#a8dba8" style="" class=""/><circle cx="32" cy="17" fill="#eeeefd" r="3" data-original="#a8dba8" style="" class=""/><path d="m56 26.862 1.413 2.261 2.587.645-1.714 2.042.186 2.66-2.472-.999-2.472.999.186-2.66-1.714-2.042 2.587-.645z" fill="#eeeefd" data-original="#cff09e" style="" class=""/><path d="m44 52.862 1.413 2.261 2.587.645-1.714 2.042.186 2.66-2.472-.999-2.472.999.186-2.66-1.714-2.042 2.587-.645z" fill="#eeeefd" data-original="#cff09e" style="" class=""/><path d="m19.199 51.276.232 2.657 2.012 1.749-2.454 1.041-1.042 2.455-1.749-2.013-2.656-.232 1.374-2.285-.6-2.599 2.598.601z" fill="#eeeefd" data-original="#cff09e" style="" class=""/><path d="m10.192 32.319 2.317 1.318 2.583-.663-.537 2.612 1.428 2.252-2.65.296-1.7 2.054-1.1-2.429-2.479-.982 1.97-1.797z" fill="#eeeefd" data-original="#cff09e" style="" class=""/><circle cx="47" cy="45" fill="#eeeefd" r="2" data-original="#a8dba8" style="" class=""/><circle cx="49" cy="19" fill="#eeeefd" r="2" data-original="#a8dba8" style="" class=""/><circle cx="28" cy="57" fill="#eeeefd" r="2" data-original="#a8dba8" style="" class=""/><circle cx="18" cy="45" fill="#eeeefd" r="2" data-original="#a8dba8" style="" class=""/><circle cx="11.926" cy="21.568" fill="#eeeefd" r="2" data-original="#a8dba8" style="" class=""/></g><g id="Stroke_Close_copy" data-name="Stroke Close copy"><path d="m60.951 29.458a1 1 0 0 0 -.709-.661l-2.2-.547-.575-.921a6.96 6.96 0 0 0 -4.353-6.461 6.918 6.918 0 0 0 -6.946-6.986h-.04a6.933 6.933 0 0 0 -3.228-3.558 2.594 2.594 0 0 1 1.3-.687 1 1 0 0 0 .511-1.687l-.284-.284a2.6 2.6 0 0 1 -.487-3.008l.251-.5a1 1 0 0 0 -1.341-1.341l-.5.251a2.6 2.6 0 0 1 -3.008-.487l-.284-.284a1 1 0 0 0 -1.687.511 2.609 2.609 0 0 1 -3.071 2.04 1 1 0 0 0 -1.18 1.177 2.618 2.618 0 0 1 -1.12 2.682 2.607 2.607 0 0 1 -1.12-2.682 1 1 0 0 0 -1.18-1.177 2.609 2.609 0 0 1 -3.063-2.048 1 1 0 0 0 -1.687-.511l-.284.284a2.605 2.605 0 0 1 -3.008.487l-.5-.251a1 1 0 0 0 -1.342 1.341l.252.5a2.6 2.6 0 0 1 -.487 3.008l-.284.284a1 1 0 0 0 .503 1.695 2.594 2.594 0 0 1 1.3.687 6.933 6.933 0 0 0 -3.233 3.558h-.04a6.909 6.909 0 0 0 -6.6 4.768 3.007 3.007 0 0 0 -2.265 3.387 6.986 6.986 0 0 0 -1.9 8 6.985 6.985 0 0 0 0 9.918 6.985 6.985 0 0 0 3.816 9.173 6.925 6.925 0 0 0 2.026 4.96 6.717 6.717 0 0 0 .776.664l-1 1.661a1 1 0 0 0 .77 1.512l2.253.2 1.484 1.707a1 1 0 0 0 1.676-.265l.5-1.178a6.9 6.9 0 0 0 2.3 1.555 6.969 6.969 0 0 0 5.376-.021 6.97 6.97 0 0 0 9.917.009 7 7 0 0 0 3.568.48 1 1 0 0 0 1.376.988l2.1-.848 2.1.848a1 1 0 0 0 1.373-1l-.158-2.256 1.454-1.733a1 1 0 0 0 .207-.873 6.917 6.917 0 0 0 4.145-6.406 6.985 6.985 0 0 0 3.816-9.173 6.944 6.944 0 0 0 2.059-4.635c.023-.014.045-.029.067-.045a1 1 0 0 0 .41-.879l-.158-2.256 1.454-1.733a1 1 0 0 0 .182-.953zm-11.951-11.458a1 1 0 1 1 -1 1 1 1 0 0 1 1-1zm-13.845-11.114a4.63 4.63 0 0 0 3.606-2.23 4.593 4.593 0 0 0 2.926.657 4.6 4.6 0 0 0 .657 2.926 4.628 4.628 0 0 0 -2.23 3.606 4.614 4.614 0 0 0 -1.537.4 4.008 4.008 0 0 0 -1.071-1.337l2.958-2.958a1 1 0 0 0 -1.414-1.414l-3.518 3.518a3.275 3.275 0 0 0 -1.818.182v-.023a.985.985 0 0 0 -.016-.326 4.65 4.65 0 0 0 1.457-3.001zm10.387 25.42a6.972 6.972 0 0 0 0 5.388 6.977 6.977 0 0 0 -2.061 5 6.728 6.728 0 0 0 -3.789 3.789 7.385 7.385 0 0 0 -2.716.531 6.984 6.984 0 0 0 -2.281 1.53 7.072 7.072 0 0 0 -5.388 0 6.984 6.984 0 0 0 -2.281-1.53 7.253 7.253 0 0 0 -2.716-.531 6.728 6.728 0 0 0 -3.789-3.789 6.977 6.977 0 0 0 -2.061-5 6.972 6.972 0 0 0 0-5.388 6.977 6.977 0 0 0 1.531-2.28v-.011l.129.035a4 4 0 1 0 7.727 2.071l.969.259a2.986 2.986 0 0 0 2.655 1.62 3.027 3.027 0 0 0 .782-.1l2.9-.776a4 4 0 0 0 7.727-2.071l1.438-.385a6.969 6.969 0 0 0 1.224 1.638zm-26.542 12.694a1 1 0 1 1 -1-1 1 1 0 0 1 1 1zm18-31a2 2 0 0 1 -1.2 1.828 4 4 0 0 0 -2.628-2.628 2 2 0 0 1 3.828.8zm-7 3a2 2 0 1 1 2 2 2 2 0 0 1 -2-2zm-1.8-1.172a2 2 0 1 1 2.628-2.628 4 4 0 0 0 -2.628 2.628zm-3.184-1.936c0 .036-.011.071-.011.108a4 4 0 0 0 3.108 3.892 4.025 4.025 0 0 0 .128.408 7.949 7.949 0 0 0 -.055 4.265l.991 3.7-9.429-2.527 1.553-5.8a6.014 6.014 0 0 1 3.71-4.046zm-6.757 11.518 11.511 3.084.011.042a2.819 2.819 0 0 0 -1.2 1.712l-10.839-2.906a1 1 0 1 1 .517-1.932zm3.795 5.158 3.863 1.032a2 2 0 1 1 -3.863-1.035zm18.892 1a2 2 0 0 1 -1.414 2.45 2 2 0 0 1 -2.449-1.418zm4.919-3.692a.992.992 0 0 1 -.607.466l-13.523 3.623a1 1 0 1 1 -.517-1.931l13.523-3.624a1.011 1.011 0 0 1 .26-.035 1 1 0 0 1 .864 1.5zm-14.2-.033-1.553-5.8a5.965 5.965 0 0 1 -.2-1.65 3.954 3.954 0 0 0 2.088.607 4 4 0 0 0 3.892-3.108 4 4 0 0 0 2.89-2.647 5.95 5.95 0 0 1 2.922 3.7l1.553 5.8zm-9.353-22.53a4.587 4.587 0 0 0 2.927-.657 4.628 4.628 0 0 0 3.6 2.23 4.621 4.621 0 0 0 2.777 3.884l-.03.207a3.96 3.96 0 0 0 -2.586-.977 3.9 3.9 0 0 0 -.532.054l-3.518-3.518a1 1 0 0 0 -1.414 1.414l2.958 2.958a4 4 0 0 0 -.689.711c-.2.033-.4.069-.6.117-.1.025-.2.057-.3.086-.141.04-.284.071-.423.119a4.639 4.639 0 0 0 -.591-.09 4.627 4.627 0 0 0 -2.23-3.612 4.592 4.592 0 0 0 .651-2.926zm-10.426 15.256.078.007a.881.881 0 0 0 .089 0 1 1 0 1 1 -.167-.007zm-4.714 15.736a5 5 0 0 1 1.743-5.234 1 1 0 0 0 .254-1.271 4.99 4.99 0 0 1 .794-5.96 3 3 0 1 0 3.308-4.948 4.92 4.92 0 0 1 5.179-2.968 1 1 0 0 0 1.082-.726 4.972 4.972 0 0 1 2.368-3.034 2.621 2.621 0 0 1 -.049.54 1 1 0 0 0 .108.676 7.984 7.984 0 0 0 -2.592 4.044l-1.6 5.971a2.994 2.994 0 0 0 -.54 5.878l.8.216a4.989 4.989 0 0 1 -1.418 1.785 1 1 0 0 0 -.254 1.278 4.978 4.978 0 0 1 .246 4.4l-.987-1.555.456-2.216a1 1 0 0 0 -1.228-1.171l-2.192.563-1.964-1.123a1 1 0 0 0 -1.493.806l-.142 2.258-1.671 1.525a1 1 0 0 0 -.208.266zm6.538-.183.571.9-1.059.119a1 1 0 0 0 -.659.356l-.679.821-.44-.97a.993.993 0 0 0 -.543-.517l-.99-.393.787-.718a1 1 0 0 0 .324-.676l.067-1.063.926.526a1 1 0 0 0 .743.1l1.032-.265-.215 1.043a1 1 0 0 0 .135.737zm4.89 19.678a1 1 0 0 0 -.53.53l-.416.98-.7-.8a1 1 0 0 0 -.667-.34l-1.062-.093.548-.913a1 1 0 0 0 .118-.741l-.24-1.038 1.038.24a1 1 0 0 0 .741-.117l.913-.549.093 1.062a1 1 0 0 0 .34.668l.8.7zm9.228 2.182c-.028-.01-.057-.02-.086-.028a1.075 1.075 0 0 1 -.18-.067c-.026-.013-.052-.024-.078-.035a1 1 0 1 1 1.516-.852 1.027 1.027 0 0 1 -1.174.985zm17.694-.818a1 1 0 0 0 -.232.713l.075 1.063-.988-.4a1.013 1.013 0 0 0 -.75 0l-.988.4.075-1.063a1 1 0 0 0 -.232-.713l-.685-.816 1.034-.258a1 1 0 0 0 .607-.44l.564-.9.564.9a1 1 0 0 0 .607.44l1.034.258zm11.478-22.164a4.974 4.974 0 0 1 -1.915 3.929 1 1 0 0 0 -.254 1.276 4.986 4.986 0 0 1 -3.024 7.263 1 1 0 0 0 -.726 1.082 4.928 4.928 0 0 1 -5.12 5.564l-1.113-1.782a1.039 1.039 0 0 0 -1.7 0l-1.2 1.918-2.2.547a1 1 0 0 0 -.524 1.614l1.454 1.733-.015.218a4.984 4.984 0 0 1 -3.469-.531 1 1 0 0 0 -1.275.254 4.969 4.969 0 0 1 -6.2 1.363 3 3 0 1 0 -4.4-1.077 4.94 4.94 0 0 1 -4.5-1.344l1-.425a1 1 0 0 0 .265-1.675l-1.707-1.484-.2-2.254a1 1 0 0 0 -1.511-.77l-1.939 1.165-2.2-.509a1 1 0 0 0 -.933.267 1.019 1.019 0 0 0 -.143.18 5.031 5.031 0 0 1 -.546-2.972 1 1 0 0 0 -.726-1.082 4.986 4.986 0 0 1 -3.024-7.263 1 1 0 0 0 -.254-1.276 5.068 5.068 0 0 1 -1.078-1.162l1.952.773.933 2.061a1 1 0 0 0 1.682.225l1.442-1.743 2.249-.252a1.007 1.007 0 0 0 .448-.164.768.768 0 0 0 .068.058 4.96 4.96 0 0 1 1.871 3.314 2.939 2.939 0 0 0 -.468-.039 3 3 0 1 0 2.99 3.247 4.76 4.76 0 0 1 1.656 2.553 1 1 0 0 0 1.087.723 4.974 4.974 0 0 1 4.542 1.87 1 1 0 0 0 1.277.254 5.061 5.061 0 0 1 4.9 0 1 1 0 0 0 1.277-.254 4.974 4.974 0 0 1 4.542-1.87 1 1 0 0 0 1.087-.723 4.937 4.937 0 0 1 1.252-2.19 4.76 4.76 0 0 1 1.416-.972 2.948 2.948 0 0 0 -.026.362 3 3 0 1 0 1.486-2.589 4.968 4.968 0 0 1 1.9-3.686 1 1 0 0 0 .254-1.277 4.981 4.981 0 0 1 0-4.9 1 1 0 0 0 -.254-1.278 4.948 4.948 0 0 1 -1.087-1.2 2.987 2.987 0 0 0 -1.063-5.67l-1.6-5.971a7.931 7.931 0 0 0 -3.314-4.585 2.519 2.519 0 0 1 .653.041 1 1 0 0 0 1.177-1.185 2.621 2.621 0 0 1 -.049-.54 4.972 4.972 0 0 1 2.365 3.029 1 1 0 0 0 1.082.726 5.077 5.077 0 0 1 2.379.279 3 3 0 1 0 3.18 4.933c-.006.106-.015.213-.028.319a1 1 0 0 0 .726 1.082 4.969 4.969 0 0 1 3.29 2.9 4.859 4.859 0 0 1 .228.691 1 1 0 0 0 -.173.208l-1.2 1.918-2.2.547a1 1 0 0 0 -.524 1.614l1.454 1.733-.152 2.261a1 1 0 0 0 1.373 1l2.1-.848 1 .405zm-11 10a1 1 0 1 1 1 1 1 1 0 0 1 -1-1zm11.52-13.833a1 1 0 0 0 -.232.713l.075 1.063-.988-.4a1.013 1.013 0 0 0 -.75 0l-.988.4.075-1.063a1 1 0 0 0 -.232-.713l-.685-.816 1.034-.258a1 1 0 0 0 .607-.44l.564-.9.564.9a1 1 0 0 0 .607.44l1.034.258z" fill="#2b2942" data-original="#3b8686" style="" class=""/></g></g></g></svg>
