<svg height="512" viewBox="0 0 64 64" width="512" xmlns="http://www.w3.org/2000/svg"><g id="Twotone"><g id="Color_copy_2" data-name="Color copy 2"><path d="m8 33h16v28h-16z" fill="#79bd9a"/><path d="m30 33h16v28h-16z" fill="#79bd9a"/><path d="m40.238 50.044 1.236 2.505 2.764.402-2 1.949.472 2.753-2.472-1.3-2.472 1.3.472-2.753-2-1.949 2.764-.402z" fill="#a8dba8"/><path d="m35 37 1.236 2.505 2.764.401-2 1.95.472 2.753-2.472-1.3-2.472 1.3.472-2.753-2-1.95 2.764-.401z" fill="#a8dba8"/><path d="m13 35 1.236 2.505 2.764.401-2 1.95.472 2.753-2.472-1.3-2.472 1.3.472-2.753-2-1.95 2.764-.401z" fill="#a8dba8"/><path d="m13 53 1.236 2.505 2.764.401-2 1.95.472 2.753-2.472-1.3-2.472 1.3.472-2.753-2-1.95 2.764-.401z" fill="#a8dba8"/><path d="m21.887 43.887 1.236 2.505 2.764.402-2 1.949.473 2.753-2.473-1.3-2.472 1.3.472-2.753-2-1.949 2.764-.402z" fill="#a8dba8"/><g fill="#cff09e"><path d="m30 58v3h-6v-28h3v22a3 3 0 0 0 3 3z"/><path d="m26.85 15.5-.03.06-12.12-7 3.23-1.59 1.73 1a2.976 2.976 0 0 0 3.46-.34l1.22.95a7 7 0 0 0 2.51 6.92z"/><path d="m35.75 16.1-2 3.46-6.06-3.5a6.988 6.988 0 0 1 -2.56-9.56 4.6 4.6 0 0 1 .42-.63 6.466 6.466 0 0 0 2.29 7.94l-.02.02.87.5a5 5 0 0 0 4.46.27z"/><path d="m32.947 7.575a2.988 2.988 0 0 1 .84 3.926l-1.5 2.6 1.732 1 .5-.866a4.962 4.962 0 0 0 -1.572-6.658z"/><path d="m58 33.56-12.12-7 .03-.06a7.008 7.008 0 0 0 7.26-1.27l1.43.57a2.965 2.965 0 0 0 1.44 3.17l1.73 1z"/><path d="m54.91 22.82a4.794 4.794 0 0 1 -.34.68 6.988 6.988 0 0 1 -9.56 2.56l-6.06-3.5 2-3.46 2.6 1.5a4.993 4.993 0 0 0 2.46 3.73l.87.5.01-.02a6.477 6.477 0 0 0 8.02-1.99z"/></g><path d="m21.023 7.912h6.003v18.996h-6.003z" fill="#79bd9a" transform="matrix(.5 -.866 .866 .5 -3.066 29.508)"/><path d="m42.673 20.412h6.003v18.996h-6.003z" fill="#79bd9a" transform="matrix(.5 -.866 .866 .5 -3.057 54.526)"/><path d="m49.731 17.265a2.989 2.989 0 0 0 -3.82 1.236l-1.5 2.6-1.732-1 .5-.866a4.964 4.964 0 0 1 6.552-1.968z" fill="#cff09e"/><path d="m39.947 20.831-1 1.732-5.2-3 2.5-4.33a3 3 0 0 1 4.1-1.1 1.06 1.06 0 0 1 .151.1 2.711 2.711 0 0 0 -.651.767l-1 1.732a3 3 0 0 0 1.1 4.099z" fill="#cff09e"/><path d="m36.947 26.028-1 1.732-5.2-3 3-5.2 2.6 1.5-.5.866a3 3 0 0 0 1.1 4.102z" fill="#cff09e"/><path d="m5.114 15 2.443 1.631 2.728-1.088-.797 2.827 1.878 2.259-2.935.116-1.568 2.483-1.017-2.755-2.846-.724 2.306-1.819z" fill="#a8dba8"/></g><g id="Stroke_Close_copy" fill="#3b8686" data-name="Stroke Close copy"><path d="m61.373 27.44-6.495-2.608a8.049 8.049 0 0 0 .56-.831 8 8 0 0 0 -13.061-9.129 3.935 3.935 0 0 0 -3.677-2.128 8 8 0 0 0 -14.439-6.744 8.245 8.245 0 0 0 -.416.837l-5.536-4.262a1 1 0 0 0 -1.576 1.051l.839 3.132-3.132.842a1 1 0 0 0 -.24 1.83l1.732 1-2.5 4.33a1 1 0 0 0 .366 1.366l27.493 15.874h-33.291a1 1 0 0 0 -1 1v28a1 1 0 0 0 1 1h38a1 1 0 0 0 1-1v-25.7l4.9 2.83a1 1 0 0 0 .5.134 1.041 1.041 0 0 0 .259-.034 1 1 0 0 0 .607-.466l2.5-4.33 1.732 1a1 1 0 0 0 1.502-.934l-.189-2.934 2.634-1.3a1 1 0 0 0 -.07-1.824zm-18.06-10.44a6 6 0 1 1 2.2 8.2l-5.2-3 1-1.731 5.2 3a4 4 0 1 0 -1.468-5.469l-1 1.732-1.732-1zm-5.732 5.93-2 3.463-3.463-2 2-3.464zm8.2-2.2 1-1.732a2 2 0 1 1 .733 2.732zm-5.932-5.73a2 2 0 0 1 .732 2.732l-2 3.464-3.463-2 2-3.464a2 2 0 0 1 2.731-.732zm-13.856-8a5.956 5.956 0 0 1 3.643-2.795 5.963 5.963 0 0 1 4.553.6 6 6 0 0 1 2.2 8.2l-1 1.732-1.732-1 1-1.732a4 4 0 1 0 -5.464 1.465l5.2 3-1 1.731-5.2-3a6.006 6.006 0 0 1 -2.2-8.201zm6.928 4-1 1.732-1.732-1a2 2 0 0 1 .482-3.664 2.027 2.027 0 0 1 .521-.068 2 2 0 0 1 1.729 3zm-13.865-2.569a1 1 0 0 0 .707-1.225l-.334-1.244 3.838 2.954a8.023 8.023 0 0 0 .354 3.644l-5.821-3.36-.511-.3zm-1.393 3 14.722 8.5-2 3.464-14.722-8.5zm2.922 36.6-.549-.535.759-.111a1 1 0 0 0 .753-.547l.339-.687.34.687a1 1 0 0 0 .752.547h.021v2.268l-.648-.341a.994.994 0 0 0 -.93 0l-.679.357.13-.756a1 1 0 0 0 -.288-.886zm2.415-14.031v9.883l-.216-.438a1.041 1.041 0 0 0 -1.793 0l-1 2.033-2.244.327a1 1 0 0 0 -.554 1.7l1.624 1.583-.383 2.234a1 1 0 0 0 1.451 1.054l2.006-1.055 1.109.59v8.089h-6.617l-.308-1.8 1.625-1.578a1 1 0 0 0 -.554-1.7l-2.246-.331-1-2.033a1.04 1.04 0 0 0 -1.793 0l-1 2.033-2.107.309v-15.6l.925.9-.383 2.24a1 1 0 0 0 1.451 1.053l2.007-1.054 2.007 1.054a1 1 0 0 0 1.451-1.053l-.383-2.235 1.625-1.583a1 1 0 0 0 -.554-1.7l-2.246-.331-1-2.033a1.04 1.04 0 0 0 -1.793 0l-1 2.033-2.107.309v-2.9zm-8.986 24.024.13.756-.679-.356a1 1 0 0 0 -.93 0l-.679.356.13-.756a1 1 0 0 0 -.288-.884l-.549-.536.758-.11a1 1 0 0 0 .753-.547l.34-.687.34.687a1 1 0 0 0 .753.547l.758.11-.549.536a1 1 0 0 0 -.288.884zm0-18 .13.756-.679-.356a1 1 0 0 0 -.93 0l-.679.356.13-.756a1 1 0 0 0 -.288-.884l-.549-.536.758-.11a1 1 0 0 0 .753-.547l.34-.687.34.687a1 1 0 0 0 .753.547l.758.11-.549.536a1 1 0 0 0 -.288.884zm-5.014 17.276.925.9-.308 1.8h-.617zm16 2.7v-26h4v26zm20-7.683a.99.99 0 0 0 -.618-.355l-2.244-.327-1-2.032a1 1 0 0 0 -1.793 0l-1 2.032-2.244.327a1 1 0 0 0 -.554 1.7l1.624 1.583-.384 2.234a1 1 0 0 0 1.451 1.054l2.007-1.055 2.007 1.055a1 1 0 0 0 1.448-1.049l-.384-2.234 1.624-1.583a1.019 1.019 0 0 0 .06-.083v6.416h-14v-18.7l.925.9-.383 2.235a1 1 0 0 0 1.451 1.053l2.007-1.049 2.007 1.054a1 1 0 0 0 1.451-1.053l-.383-2.235 1.625-1.583a1 1 0 0 0 -.554-1.7l-2.246-.331-1-2.033a1.04 1.04 0 0 0 -1.793 0l-1 2.033-2.1.3v-4.891h13.748l.245.141zm-3.748 2.752.13.756-.678-.356a1 1 0 0 0 -.931 0l-.679.356.13-.756a1 1 0 0 0 -.288-.884l-.549-.537.759-.11a1 1 0 0 0 .752-.547l.34-.687.34.687a1 1 0 0 0 .752.547l.759.111-.549.536a1 1 0 0 0 -.288.884zm-5.238-13.045.13.756-.679-.356a1 1 0 0 0 -.93 0l-.679.356.13-.756a1 1 0 0 0 -.288-.884l-.549-.536.758-.11a1 1 0 0 0 .753-.547l.34-.687.34.687a1 1 0 0 0 .753.547l.758.11-.549.536a1 1 0 0 0 -.288.884zm18.022-9.594-2 3.464-14.723-8.5 2-3.464zm3.289-3.362a1 1 0 0 0 -.555.961l.112 1.735-.982-.564-5.83-3.37c.17-.034.341-.056.51-.1a7.97 7.97 0 0 0 2.77-1.354l5.2 2.088z"/><path d="m6.759 24.222a.92.92 0 0 0 .1.006 1 1 0 0 0 .846-.466l1.295-2.038 2.409-.1a1 1 0 0 0 .73-1.639l-1.542-1.854.654-2.32a1 1 0 0 0 -1.333-1.2l-2.239.893-2.01-1.336a1 1 0 0 0 -1.553.9l.157 2.406-1.892 1.49a1 1 0 0 0 .372 1.754l2.337.595.835 2.261a1 1 0 0 0 .834.648zm-1.549-4.943.715-.563a1 1 0 0 0 .379-.851l-.06-.908.756.506a1 1 0 0 0 .926.1l.845-.337-.246.876a1 1 0 0 0 .193.911l.583.7-.91.036a1 1 0 0 0 -.807.465l-.484.766-.316-.854a1 1 0 0 0 -.691-.622z"/><path d="m10.232 23.359a1 1 0 0 0 .128 1.41l6 5a1 1 0 0 0 1.28-1.538l-6-5a1 1 0 0 0 -1.408.128z"/><path d="m22 30a1 1 0 0 0 .8-1.6l-6-8a1 1 0 1 0 -1.6 1.2l6 8a1 1 0 0 0 .8.4z"/><path d="m27 30a1 1 0 0 0 .831-1.555l-2-3a1 1 0 0 0 -1.664 1.11l2 3a1 1 0 0 0 .833.445z"/><path d="m11 30a1 1 0 0 0 .242-1.97l-4-1a1 1 0 0 0 -.486 1.94l4 1a1.025 1.025 0 0 0 .244.03z"/><circle cx="8" cy="12" r="1"/><circle cx="3" cy="27" r="1"/><circle cx="3" cy="10" r="1"/><circle cx="10" cy="9" r="1"/><circle cx="6" cy="5" r="1"/></g></g></svg>