<?xml version="1.0"?>
<svg xmlns="http://www.w3.org/2000/svg" xmlns:xlink="http://www.w3.org/1999/xlink" xmlns:svgjs="http://svgjs.com/svgjs" version="1.1" width="512" height="512" x="0" y="0" viewBox="0 0 64 64" style="enable-background:new 0 0 512 512" xml:space="preserve" class=""><g><g xmlns="http://www.w3.org/2000/svg" id="Twotone"><g id="Color_copy_2" data-name="Color copy 2"><path d="m22 33h11v-21a5 5 0 0 0 -5-5h-20a5 5 0 0 0 -5 5v21a4 4 0 0 0 4 4h15z" fill="#5956e9" data-original="#a8dba8" style="" class=""/><path d="m18 12h4v25h-4z" fill="#eeeefd" data-original="#cff09e" style="" class=""/><path d="m11 7h14v5h-14z" fill="#5956e9" data-original="#79bd9a" style="" class=""/><path d="m11 3h14v4h-14z" fill="#5956e9" data-original="#a8dba8" style="" class=""/><path d="m24 17-6-5 7-9 3 4z" fill="#eeeefd" data-original="#cff09e" style="" class=""/><path d="m12 17 6-5-7-9-3 4z" fill="#eeeefd" data-original="#cff09e" style="" class=""/><path d="m7 21h6a0 0 0 0 1 0 0v2a2 2 0 0 1 -2 2h-2a2 2 0 0 1 -2-2v-2a0 0 0 0 1 0 0z" fill="#5956e9" data-original="#79bd9a" style="" class=""/><path d="m50.86 53.52a15 15 0 0 1 -11.02-11.95l-1.49-8.57h-2.35v10a4 4 0 0 1 -4-4v-6h-10l-1 24h13l2-8 2 8h13z" fill="#eeeefd" data-original="#cff09e" style="" class=""/><path d="m21 57h13v4h-13z" fill="#5956e9" data-original="#79bd9a" style="" class=""/><path d="m38 57h13v4h-13z" fill="#5956e9" data-original="#79bd9a" style="" class=""/><path d="m61 12v10.29a4.015 4.015 0 0 1 -2.51 3.72l-4.47 1.78a3.066 3.066 0 0 1 -4.05-1.88.09.09 0 0 1 -.01-.05 2.817 2.817 0 0 0 .92.15 3.077 3.077 0 0 0 1.14-.22l4.47-1.78a4.015 4.015 0 0 0 2.51-3.72v-8.29z" fill="#eeeefd" data-original="#cff09e" style="" class=""/><path d="m55 16h6v4h-6z" fill="#5956e9" data-original="#79bd9a" style="" class=""/><path d="m51 6v10.29a4.015 4.015 0 0 1 -2.51 3.72l-4.47 1.78a3.066 3.066 0 0 1 -4.05-1.88.09.09 0 0 1 -.01-.05 2.817 2.817 0 0 0 .92.15 3.077 3.077 0 0 0 1.14-.22l4.47-1.78a4.015 4.015 0 0 0 2.51-3.72v-8.29z" fill="#eeeefd" data-original="#cff09e" style="" class=""/><path d="m45 10h6v4h-6z" fill="#5956e9" data-original="#79bd9a" style="" class=""/></g><g id="Stroke_Close_copy" fill="#3b8686" data-name="Stroke Close copy"><path d="m26 20a1 1 0 0 0 0 2h3a1 1 0 0 0 0-2z" fill="#001738" data-original="#3b8686" style="" class=""/><path d="m29 24h-3a1 1 0 0 0 0 2h3a1 1 0 0 0 0-2z" fill="#001738" data-original="#3b8686" style="" class=""/><path d="m13 20h-6a1 1 0 0 0 -1 1v2a3 3 0 0 0 3 3h2a3 3 0 0 0 3-3v-2a1 1 0 0 0 -1-1zm-1 3a1 1 0 0 1 -1 1h-2a1 1 0 0 1 -1-1v-1h4z" fill="#001738" data-original="#3b8686" style="" class=""/><path d="m26.142 40.01a1 1 0 0 0 -1.132.848l-1 7a1 1 0 0 0 1.98.284l1-7a1 1 0 0 0 -.848-1.132z" fill="#001738" data-original="#3b8686" style="" class=""/><path d="m47 49a1 1 0 0 0 .991-1.142l-1-7a1 1 0 0 0 -1.98.284l1 7a1 1 0 0 0 .989.858z" fill="#001738" data-original="#3b8686" style="" class=""/><path d="m51 32.958a1 1 0 0 0 -1-.958h-16v-20a6.006 6.006 0 0 0 -5.481-5.974l-2.719-3.626a1 1 0 0 0 -.8-.4h-14a1 1 0 0 0 -.8.4l-2.719 3.626a6.006 6.006 0 0 0 -5.481 5.974v21a5.006 5.006 0 0 0 5 5h13.791l-.791 18.958v4.042a1 1 0 0 0 1 1h13a1 1 0 0 0 1-1v-3.877l1-4 1 4v3.877a1 1 0 0 0 1 1h13a1 1 0 0 0 1-1v-4.042zm-16 8.871a3.006 3.006 0 0 1 -2-2.829v-5h2zm-3-29.829v20h-9v-14.531l.36.3a1 1 0 0 0 .64.231 1.021 1.021 0 0 0 .245-.03 1 1 0 0 0 .684-.6l3.722-9.3a4 4 0 0 1 3.349 3.93zm-5.137-4.85-3.28 8.2-4.2-3.5 5.6-7.2zm-5.463-1.15h-6.8l-1.555-2h9.91zm-1.556 2-1.844 2.371-1.844-2.371zm-8.83-3.352 5.6 7.2-4.2 3.5-3.28-8.2zm-7.014 28.352v-21a4 4 0 0 1 3.349-3.934l3.722 9.3a1 1 0 0 0 1.569.4l4.36-3.631v21.865h-10a3 3 0 0 1 -3-3zm15 3v-21.865l2 1.665v17.181l-.126 3.019zm3 24v-2h11v2zm14.97-11.242a1 1 0 0 0 -1.94 0l-1.811 7.242h-11.176l.791-19h.166v-3h8v5a5.009 5.009 0 0 0 4 4.9v1.1a1 1 0 0 0 2 0v-11h12.041l.917 22h-11.177zm2.03 11.242v-2h11v2z" fill="#001738" data-original="#3b8686" style="" class=""/><path d="m41.171 22.633a4.09 4.09 0 0 0 3.223.087l4.462-1.785a4.976 4.976 0 0 0 3.144-4.643v-10.292a1 1 0 0 0 -1-1h-6a1 1 0 0 0 -1 1v8.279l-2.405.8a4.069 4.069 0 0 0 -.424 7.552zm8.829-9.633h-4v-2h4zm0-6v2h-4v-2zm-7.772 9.978 3.088-1.03a1 1 0 0 0 .684-.948h4v1.292a2.984 2.984 0 0 1 -1.886 2.785l-4.463 1.785a2.071 2.071 0 0 1 -2.732-1.262 2.074 2.074 0 0 1 1.309-2.622z" fill="#001738" data-original="#3b8686" style="" class=""/><path d="m61 11h-6a1 1 0 0 0 -1 1v8.279l-2.405.8a4.069 4.069 0 1 0 2.8 7.639l4.462-1.785a4.976 4.976 0 0 0 3.143-4.641v-10.292a1 1 0 0 0 -1-1zm-1 2v2h-4v-2zm0 4v2h-4v-2zm-1.886 8.077-4.463 1.785a2.071 2.071 0 0 1 -2.732-1.262 2.074 2.074 0 0 1 1.309-2.618l3.088-1.03a1 1 0 0 0 .684-.952h4v1.292a2.984 2.984 0 0 1 -1.886 2.785z" fill="#001738" data-original="#3b8686" style="" class=""/></g></g></g></svg>
