<?xml version="1.0"?>
<svg xmlns="http://www.w3.org/2000/svg" xmlns:xlink="http://www.w3.org/1999/xlink" xmlns:svgjs="http://svgjs.com/svgjs" version="1.1" width="512" height="512" x="0" y="0" viewBox="0 0 480.00836 480" style="enable-background:new 0 0 512 512" xml:space="preserve" class=""><g><path xmlns="http://www.w3.org/2000/svg" d="m411.734375 171.738281c-24.839844-.003906-47.722656 13.496094-59.734375 35.242188v66.046875c16.105469 29.136718 50.875 42.40625 82.296875 31.410156 31.417969-11 50.324219-43.054688 44.746094-75.875-5.578125-32.816406-34.019531-56.828125-67.308594-56.824219zm0 0" fill="#eeeefd" data-original="#cff09e" style="" class=""/><path xmlns="http://www.w3.org/2000/svg" d="m48 224.003906h32v32h-32zm0 0" fill="#eeeefd" data-original="#cff09e" style="" class=""/><path xmlns="http://www.w3.org/2000/svg" d="m336 188.003906c8.835938 0 16 7.164063 16 16v80c0 8.835938-7.164062 16-16 16s-16-7.164062-16-16v-80c0-8.835937 7.164062-16 16-16zm0 0" fill="#5956e9" data-original="#a8dba8" style="" class=""/><path xmlns="http://www.w3.org/2000/svg" d="m320 227.09375v56.910156c0 8.835938 7.164062 16 16 16s16-7.164062 16-16v-32.105468c-13.132812-4.46875-24.394531-13.203126-32-24.804688zm0 0" fill="#5956e9" data-original="#79bd9a" style="" class=""/><path xmlns="http://www.w3.org/2000/svg" d="m112 208.003906h-24c-4.417969 0-8 3.582032-8 8v48c0 4.417969 3.582031 8 8 8h232v-64zm0 0" fill="#5956e9" data-original="#a8dba8" style="" class=""/><path xmlns="http://www.w3.org/2000/svg" d="m248 240.003906h24v32h-24zm0 0" fill="#5956e9" data-original="#79bd9a" style="" class=""/><path xmlns="http://www.w3.org/2000/svg" d="m96 208.003906h152v64h-152zm0 0" fill="#5956e9" data-original="#79bd9a" style="" class=""/><path xmlns="http://www.w3.org/2000/svg" d="m464 280.003906c-48.699219.40625-92.808594-28.679687-111.617188-73.601562-.117187.210937-.269531.386718-.382812.59375v66.046875c11.296875 20.484375 32.308594 33.75 55.664062 35.132812 23.351563 1.382813 45.785157-9.300781 59.425782-28.308593-1.042969.015624-2.050782.136718-3.089844.136718zm0 0" fill="#5956e9" data-original="#a8dba8" style="" class=""/><path xmlns="http://www.w3.org/2000/svg" d="m128 248.003906c8.835938 0 16-7.164062 16-16v-16c0 8.835938 7.164062 16 16 16s16-7.164062 16-16c0 8.835938 7.164062 16 16 16s16-7.164062 16-16v16c0 8.835938 7.164062 16 16 16s16-7.164062 16-16v-32c0-8.835937-7.164062-16-16-16s-16 7.164063-16 16v-16c0-8.835937-7.164062-16-16-16s-16 7.164063-16 16c0-8.835937-7.164062-16-16-16s-16 7.164063-16 16v16c0-8.835937-7.164062-16-16-16s-16 7.164063-16 16v32c0 8.835938 7.164062 16 16 16zm0 0" fill="#eeeefd" data-original="#cff09e" style="" class=""/><path xmlns="http://www.w3.org/2000/svg" d="m224 224.003906c-8.835938 0-16-7.164062-16-16v-16c0 8.835938-7.164062 16-16 16s-16-7.164062-16-16c0 8.835938-7.164062 16-16 16s-16-7.164062-16-16v16c0 8.835938-7.164062 16-16 16s-16-7.164062-16-16v24c0 8.835938 7.164062 16 16 16s16-7.164062 16-16v-16c0 8.835938 7.164062 16 16 16s16-7.164062 16-16c0 8.835938 7.164062 16 16 16s16-7.164062 16-16v16c0 8.835938 7.164062 16 16 16s16-7.164062 16-16v-24c0 8.835938-7.164062 16-16 16zm0 0" fill="#5956e9" data-original="#a8dba8" style="" class=""/><path xmlns="http://www.w3.org/2000/svg" d="m269.3125 248.226562c-7.882812 1.589844-13.488281 8.597657-13.3125 16.632813v7.144531h-144v48c0 22.089844 17.910156 40 40 40v96.097656c0 8.78125 7.121094 15.902344 15.902344 15.902344h80.21875c8.769531 0 15.878906-7.109375 15.878906-15.878906v-97.25c14.101562-3.613281 23.972656-16.3125 24-30.871094v-64c0-4.714844-2.078125-9.1875-5.679688-12.230468-3.601562-3.039063-8.359374-4.335938-13.007812-3.546876zm0 0" fill="#eeeefd" data-original="#cff09e" style="" class=""/><path xmlns="http://www.w3.org/2000/svg" d="m152 367.019531v89.082031c0 8.78125 7.121094 15.902344 15.902344 15.902344h80.097656c-32.585938-22.863281-85.710938-60.351562-96-104.984375zm0 0" fill="#5956e9" data-original="#a8dba8" style="" class=""/><path xmlns="http://www.w3.org/2000/svg" d="m152 360.003906h112v-1.128906c4.921875-1.285156 9.46875-3.722656 13.265625-7.109375-3.074219.109375-6.136719.238281-9.265625.238281-72.902344 0-132-30.398437-132-68 .046875-4.09375.785156-8.148437 2.175781-12h-26.175781v48c0 22.089844 17.910156 40 40 40zm0 0" fill="#5956e9" data-original="#a8dba8" style="" class=""/><path xmlns="http://www.w3.org/2000/svg" d="m256 312.003906-.574219-.574218c-9.878906-9.875-23.269531-15.421876-37.234375-15.425782h-106.191406v-24h144zm0 0" fill="#5956e9" data-original="#a8dba8" style="" class=""/><path xmlns="http://www.w3.org/2000/svg" d="m328 108.003906c0 13.253906-10.746094 24-24 24s-24-10.746094-24-24 10.746094-24 24-24 24 10.746094 24 24zm0 0" fill="#eeeefd" data-original="#cff09e" style="" class=""/><path xmlns="http://www.w3.org/2000/svg" d="m424 96.003906c0 13.253906-10.746094 24-24 24s-24-10.746094-24-24 10.746094-24 24-24 24 10.746094 24 24zm0 0" fill="#eeeefd" data-original="#cff09e" style="" class=""/><path xmlns="http://www.w3.org/2000/svg" d="m328 8.003906h96v32h-96zm0 0" fill="#eeeefd" data-original="#cff09e" style="" class=""/><path xmlns="http://www.w3.org/2000/svg" d="m80 140.003906c0 13.253906-10.746094 24-24 24s-24-10.746094-24-24 10.746094-24 24-24 24 10.746094 24 24zm0 0" fill="#eeeefd" data-original="#cff09e" style="" class=""/><path xmlns="http://www.w3.org/2000/svg" d="m80 48.003906h56v32h-56zm0 0" fill="#eeeefd" data-original="#cff09e" style="" class=""/><path xmlns="http://www.w3.org/2000/svg" d="m296 96.003906c.027344-4.019531 1.078125-7.96875 3.046875-11.472656-10.894531 2.230469-18.828125 11.65625-19.171875 22.769531-.347656 11.117188 6.992188 21.011719 17.726562 23.914063 10.734376 2.898437 22.058594-1.953125 27.359376-11.730469-7.078126 1.496094-14.457032-.28125-20.074219-4.839844-5.621094-4.554687-8.886719-11.40625-8.886719-18.640625zm0 0" fill="#5956e9" data-original="#a8dba8" style="" class=""/><path xmlns="http://www.w3.org/2000/svg" d="m392 84.003906c.027344-4.019531 1.078125-7.96875 3.046875-11.472656-10.894531 2.230469-18.828125 11.65625-19.171875 22.769531-.347656 11.117188 6.992188 21.011719 17.726562 23.914063 10.734376 2.898437 22.058594-1.953125 27.359376-11.730469-7.078126 1.496094-14.457032-.28125-20.074219-4.839844-5.621094-4.554687-8.886719-11.40625-8.886719-18.640625zm0 0" fill="#5956e9" data-original="#a8dba8" style="" class=""/><path xmlns="http://www.w3.org/2000/svg" d="m48 128.003906c.027344-4.019531 1.078125-7.96875 3.046875-11.472656-10.894531 2.230469-18.828125 11.65625-19.171875 22.769531-.347656 11.117188 6.992188 21.011719 17.726562 23.914063 10.734376 2.898437 22.058594-1.953125 27.359376-11.730469-7.078126 1.496094-14.457032-.28125-20.074219-4.839844-5.621094-4.554687-8.886719-11.40625-8.886719-18.640625zm0 0" fill="#5956e9" data-original="#a8dba8" style="" class=""/><path xmlns="http://www.w3.org/2000/svg" d="m328 8.003906v32h52.449219l-23.113281-32zm0 0" fill="#5956e9" data-original="#a8dba8" style="" class=""/><path xmlns="http://www.w3.org/2000/svg" d="m80 48.003906v32h56l-32-32zm0 0" fill="#5956e9" data-original="#a8dba8" style="" class=""/><path xmlns="http://www.w3.org/2000/svg" d="m152 400.003906 112-16v-24h-112zm0 0" fill="#5956e9" data-original="#a8dba8" style="" class=""/><g xmlns="http://www.w3.org/2000/svg" fill="#3b8686"><path d="m408 168.003906c-19.742188.03125-38.605469 8.167969-52.175781 22.503906-5.488281-8.105468-15.363281-12.046874-24.925781-9.957031-9.5625 2.089844-16.886719 9.796875-18.492188 19.453125h-64.40625c0-13.253906-10.746094-24-24-24-3.0625.007813-6.09375.609375-8.929688 1.769532-2.105468-8.070313-8.28125-14.441407-16.28125-16.800782-7.996093-2.359375-16.644531-.355468-22.789062 5.28125-6.144531-5.632812-14.792969-7.632812-22.785156-5.277344-7.996094 2.355469-14.175782 8.726563-16.285156 16.789063-7.390626-3.003906-15.789063-2.128906-22.398438 2.335937-6.609375 4.464844-10.558594 11.925782-10.53125 19.902344h-16c-8.835938 0-16 7.164063-16 16h-24c-4.417969 0-8 3.582032-8 8v8h-8c-17.671875 0-32 14.328125-32 32v160c0 17.671875 14.328125 32 32 32h16c8.835938 0 16 7.164063 16 16 0 4.417969 3.582031 8 8 8s8-3.582031 8-8c0-17.671875-14.328125-32-32-32h-16c-8.835938 0-16-7.164062-16-16v-36.449218c4.84375 2.882812 10.367188 4.417968 16 4.449218 17.671875 0 32-14.328125 32-32s-14.328125-32-32-32c-5.632812.035156-11.15625 1.570313-16 4.449219v-68.449219c0-8.835937 7.164062-16 16-16h8v8c0 4.417969 3.582031 8 8 8h24c0 8.835938 7.164062 16 16 16h16v40c.023438 23.40625 16.921875 43.378906 40 47.28125v104.71875c0 4.417969 3.582031 8 8 8h112c4.417969 0 8-3.582031 8-8v-107.390625c14.558594-6.355469 23.980469-20.722656 24-36.609375v-48h16v4c-.03125 11.667969 8.347656 21.65625 19.839844 23.65625 11.496094 2 22.753906-4.578125 26.664062-15.566406 23.445313 22.269531 58.867188 26.164062 86.589844 9.511719 27.71875-16.648438 40.921875-49.75 32.273438-80.910157-8.652344-31.15625-37.03125-52.714843-69.367188-52.691406zm-376 176c8.835938 0 16 7.164063 16 16 0 8.835938-7.164062 16-16 16s-16-7.164062-16-16c0-8.835937 7.164062-16 16-16zm192-152c4.417969 0 8 3.582032 8 8v32c0 4.417969-3.582031 8-8 8s-8-3.582031-8-8v-32c0-4.417968 3.582031-8 8-8zm-32-16c4.417969 0 8 3.582032 8 8v32c0 4.417969-3.582031 8-8 8s-8-3.582031-8-8v-32c0-4.417968 3.582031-8 8-8zm-40 8c0-4.417968 3.582031-8 8-8s8 3.582032 8 8v32c0 4.417969-3.582031 8-8 8s-8-3.582031-8-8zm-32 16c0-4.417968 3.582031-8 8-8s8 3.582032 8 8v32c0 4.417969-3.582031 8-8 8s-8-3.582031-8-8zm-64 48v-16h16v16zm200 216h-96v-96h96zm24-136c0 13.253906-10.746094 24-24 24h-104c-17.671875 0-32-14.328125-32-32v-40h35.054688l21.792968 43.585938c1.988282 3.949218 6.804688 5.542968 10.757813 3.554687 3.949219-1.988281 5.542969-6.804687 3.554687-10.757812l-18.214844-36.382813h75.054688v24c0 4.417969 3.582031 8 8 8s8-3.582031 8-8v-40c0-4.417968 3.582031-8 8-8s8 3.582032 8 8zm16-64c0-13.253906-10.746094-24-24-24s-24 10.746094-24 24h-160v-48h16v16c-.019531 12.023438 8.878906 22.199219 20.796875 23.777344 11.921875 1.582031 23.164063-5.921875 26.273437-17.535156 8.476563 3.46875 18.191407 1.722656 24.929688-4.480469 6.738281 6.203125 16.453125 7.949219 24.929688 4.480469 3.109374 11.613281 14.351562 19.117187 26.273437 17.535156 11.917969-1.578125 20.816406-11.753906 20.796875-23.777344v-16h64v48zm48 20c0 4.417969-3.582031 8-8 8s-8-3.582031-8-8v-80c0-4.417968 3.582031-8 8-8s8 3.582032 8 8zm64 12c-19.660156-.027344-37.875-10.347656-48-27.199218v-57.601563c13.917969-23.207031 42.441406-33.144531 67.769531-23.605469 25.324219 9.542969 40.203125 35.828125 35.347657 62.453125-4.855469 26.625-28.054688 45.964844-55.117188 45.953125zm0 0" fill="#2b2942" data-original="#3b8686" style="" class=""/><path d="m392 224.003906c0 4.417969-3.582031 8-8 8s-8-3.582031-8-8c0-4.417968 3.582031-8 8-8s8 3.582032 8 8zm0 0" fill="#2b2942" data-original="#3b8686" style="" class=""/><path d="m392 256.003906c0 4.417969-3.582031 8-8 8s-8-3.582031-8-8c0-4.417968 3.582031-8 8-8s8 3.582032 8 8zm0 0" fill="#2b2942" data-original="#3b8686" style="" class=""/><path d="m424 272.003906c0 4.417969-3.582031 8-8 8s-8-3.582031-8-8c0-4.417968 3.582031-8 8-8s8 3.582032 8 8zm0 0" fill="#2b2942" data-original="#3b8686" style="" class=""/><path d="m448 256.003906c0 4.417969-3.582031 8-8 8s-8-3.582031-8-8c0-4.417968 3.582031-8 8-8s8 3.582032 8 8zm0 0" fill="#2b2942" data-original="#3b8686" style="" class=""/><path d="m424 240.003906c0 4.417969-3.582031 8-8 8s-8-3.582031-8-8c0-4.417968 3.582031-8 8-8s8 3.582032 8 8zm0 0" fill="#2b2942" data-original="#3b8686" style="" class=""/><path d="m424 208.003906c0 4.417969-3.582031 8-8 8s-8-3.582031-8-8c0-4.417968 3.582031-8 8-8s8 3.582032 8 8zm0 0" fill="#2b2942" data-original="#3b8686" style="" class=""/><path d="m448 224.003906c0 4.417969-3.582031 8-8 8s-8-3.582031-8-8c0-4.417968 3.582031-8 8-8s8 3.582032 8 8zm0 0" fill="#2b2942" data-original="#3b8686" style="" class=""/><path d="m304 140.003906c17.671875 0 32-14.328125 32-32 0-.910156-.191406-1.769531-.273438-2.664062.132813-.4375.222657-.882813.273438-1.335938v-56h80v20.449219c-4.84375-2.878906-10.367188-4.414063-16-4.449219-17.671875 0-32 14.328125-32 32s14.328125 32 32 32 32-14.328125 32-32v-88c0-4.417968-3.582031-7.99999975-8-7.99999975h-96c-4.417969 0-8 3.58203175-8 7.99999975v72.449219c-4.84375-2.878906-10.367188-4.414063-16-4.449219-17.671875 0-32 14.328125-32 32s14.328125 32 32 32zm96-28c-8.835938 0-16-7.164062-16-16 0-8.835937 7.164062-16 16-16s16 7.164063 16 16c0 8.835938-7.164062 16-16 16zm-64-96h80v16h-80zm-32 76c8.835938 0 16 7.164063 16 16 0 8.835938-7.164062 16-16 16s-16-7.164062-16-16c0-8.835937 7.164062-16 16-16zm0 0" fill="#2b2942" data-original="#3b8686" style="" class=""/><path d="m56 172.003906c17.671875 0 32-14.328125 32-32 0-.910156-.191406-1.769531-.273438-2.664062.132813-.4375.222657-.882813.273438-1.335938v-48h48c4.417969 0 8-3.582031 8-8v-32c0-4.417968-3.582031-8-8-8h-56c-4.417969 0-8 3.582032-8 8v64.449219c-4.84375-2.878906-10.367188-4.414063-16-4.449219-17.671875 0-32 14.328125-32 32s14.328125 32 32 32zm32-116h40v16h-40zm-32 68c8.835938 0 16 7.164063 16 16 0 8.835938-7.164062 16-16 16s-16-7.164062-16-16c0-8.835937 7.164062-16 16-16zm0 0" fill="#2b2942" data-original="#3b8686" style="" class=""/><path d="m424 400.003906h-16v-16c0-4.417968-3.582031-8-8-8s-8 3.582032-8 8v16h-16c-4.417969 0-8 3.582032-8 8 0 4.417969 3.582031 8 8 8h16v16c0 4.417969 3.582031 8 8 8s8-3.582031 8-8v-16h16c4.417969 0 8-3.582031 8-8 0-4.417968-3.582031-8-8-8zm0 0" fill="#2b2942" data-original="#3b8686" style="" class=""/><path d="m186.078125 115.773438c2.976563 3.269531 8.035156 3.507812 11.304687.535156l11.839844-10.761719 10.761719 11.839844c2.972656 3.273437 8.035156 3.515625 11.308594.542969 3.269531-2.976563 3.511719-8.039063.539062-11.308594l-10.769531-11.839844 11.832031-10.777344c2.15625-1.910156 3.117188-4.835937 2.515625-7.652344-.601562-2.816406-2.667968-5.09375-5.417968-5.960937-2.746094-.867187-5.746094-.191406-7.855469 1.773437l-11.839844 10.761719-10.761719-11.832031c-2.972656-3.269531-8.035156-3.511719-11.304687-.539062-3.269531 2.976562-3.507813 8.035156-.535157 11.304687l10.761719 11.832031-11.839843 10.761719c-1.578126 1.425781-2.519532 3.421875-2.621094 5.546875-.097656 2.125.652344 4.203125 2.082031 5.773438zm0 0" fill="#2b2942" data-original="#3b8686" style="" class=""/></g></g></svg>
