<?xml version="1.0"?>
<svg xmlns="http://www.w3.org/2000/svg" xmlns:xlink="http://www.w3.org/1999/xlink" xmlns:svgjs="http://svgjs.com/svgjs" version="1.1" width="512" height="512" x="0" y="0" viewBox="0 0 64 64" style="enable-background:new 0 0 512 512" xml:space="preserve" class=""><g><g xmlns="http://www.w3.org/2000/svg" id="Twotone"><g id="Color"><g id="Layer_5_copy_7" data-name="Layer 5 copy 7"><g><path d="m37.608 25.292-1.465-3.292-4.033-.01a2 2 0 0 1 -1.84 2.21l-10.04.71a1.993 1.993 0 0 1 -1.86-.96l-1.19-1.98-3.14-.01-4.04-5.96-6-2 15.52 24.88-5.9 7.27a3 3 0 0 1 -.07 3.66l-1.95 2.44a2.007 2.007 0 0 1 -1.56.75h-1.99l-1.86 2.29 3.1 2.52 15.19-18.69-6.92-11.38z" fill="#eeeefd" data-original="#cff09e" style="" class=""/><g fill="#a8dba8"><path d="m52.548 49.058a12.482 12.482 0 0 0 -9.128-20.537z" fill="#eeeefd" data-original="#a8dba8" style="" class=""/><path d="m39.283 29.062a12.5 12.5 0 1 0 10.082 22.683z" fill="#eeeefd" data-original="#a8dba8" style="" class=""/></g><g fill="#79bd9a"><path d="m50.89 45.328a8.991 8.991 0 0 0 -5.812-13.077z" fill="#5956e9" data-original="#79bd9a" style="" class=""/><path d="m40.723 32.3a8.995 8.995 0 1 0 7.21 16.221z" fill="#5956e9" data-original="#79bd9a" style="" class=""/></g><path d="m41.105 45.909-15.393 3.591a8.728 8.728 0 0 1 -10.712-8.5 8.728 8.728 0 0 1 10.712-8.5l15.393 3.591a5.04 5.04 0 0 1 3.895 4.909 5.04 5.04 0 0 1 -3.895 4.909z" fill="#eeeefd" data-original="#a8dba8" style="" class=""/><circle cx="23" cy="41" fill="#5956e9" r="4" data-original="#79bd9a" style="" class=""/><path d="m8 42h2a2 2 0 0 1 2 2v2a0 0 0 0 1 0 0h-4a2 2 0 0 1 -2-2 2 2 0 0 1 2-2z" fill="#5956e9" transform="matrix(0 -1 1 0 -35 53)" data-original="#79bd9a" style="" class=""/><path d="m55.64 56.02-3.66 1.62-17.62-39.66 3.66-1.62 1.56 3.51a9.107 9.107 0 0 1 -1.58.13h-.52l12.88 28.98a4.012 4.012 0 0 0 3.2 2.35z" fill="#eeeefd" data-original="#cff09e" style="" class=""/><path d="m55 55v4h-46v-4h8a2.006 2.006 0 0 0 2 2h26a2.006 2.006 0 0 0 2-2z" fill="#eeeefd" data-original="#cff09e" style="" class=""/><g fill="#79bd9a"><path d="m53 55h4a4 4 0 0 1 4 4v2a0 0 0 0 1 0 0h-12a0 0 0 0 1 0 0v-2a4 4 0 0 1 4-4z" fill="#5956e9" data-original="#79bd9a" style="" class=""/><path d="m7 55h4a4 4 0 0 1 4 4v2a0 0 0 0 1 0 0h-12a0 0 0 0 1 0 0v-2a4 4 0 0 1 4-4z" fill="#5956e9" data-original="#79bd9a" style="" class=""/><path d="m5 12h8a6 6 0 0 1 6 6 0 0 0 0 1 0 0h-12a4 4 0 0 1 -4-4 2 2 0 0 1 2-2z" fill="#5956e9" data-original="#79bd9a" style="" class=""/><path d="m44 8a6 6 0 0 1 -6 6h-4a2 2 0 0 0 -2 2 2 2 0 0 0 2 2h4a10 10 0 0 0 10-10 2 2 0 0 0 -2-2 2 2 0 0 0 -2 2z" fill="#5956e9" data-original="#79bd9a" style="" class=""/></g></g></g></g><g id="Stroke_Close_copy" data-name="Stroke Close copy"><g id="Layer_5_copy_8" data-name="Layer 5 copy 8"><g fill="#3b8686"><path d="m57 54h-1.161l-2.139-4.8a13.452 13.452 0 0 0 -9.61-21.622l-3.909-8.794a11.019 11.019 0 0 0 8.819-10.784 3 3 0 0 0 -6 0 5.006 5.006 0 0 1 -5 5h-4a2.992 2.992 0 0 0 -.3 5.97l.9 2.023-20.028-.031-1.328-1.962h5.756a1 1 0 0 0 1-1 7.008 7.008 0 0 0 -7-7h-8a3 3 0 0 0 -3 3 5 5 0 0 0 3.848 4.853l10.142 16.262a9.634 9.634 0 0 0 -1.934 4.885h-5.056a3 3 0 0 0 -3 3v2a3 3 0 0 0 6 0v-3h2.056a9.774 9.774 0 0 0 .317 1.629l-8.552 10.527a5 5 0 0 0 -3.821 4.844v2a1 1 0 0 0 1 1h12a1 1 0 0 0 1-1v-1h32v1a1 1 0 0 0 1 1h12a1 1 0 0 0 1-1v-2a5.006 5.006 0 0 0 -5-5zm-6.193-11.32-3.827-8.611a7.89 7.89 0 0 1 3.827 8.611zm3.693-1.68a11.486 11.486 0 0 1 -1.745 6.062l-.766-1.724a9.939 9.939 0 0 0 -6.189-13.921l-.76-1.71a11.425 11.425 0 0 1 9.46 11.293zm-.85 13h-2.189l-15.556-35h2.095.092zm-39.973 0 4.235-5.211a9.662 9.662 0 0 0 5.8 1.943 9.791 9.791 0 0 0 2.229-.258l6.237-1.455a13.457 13.457 0 0 0 7.23 4.981zm31.305-9.654 1.667 3.754a7.875 7.875 0 0 1 -8.2-.54l2.888-.674a6 6 0 0 0 3.645-2.54zm-8.967 3.777a9.881 9.881 0 0 0 11.448 1.8l.6 1.357a11.372 11.372 0 0 1 -13.758-2.763zm12.872 5.008.386.869h-2.66a13.468 13.468 0 0 0 2.274-.869zm-27.78-21.49-1.884-3.1 17.772-2.17.938 2.112a13.555 13.555 0 0 0 -5.771 4.492l-6.223-1.452a9.679 9.679 0 0 0 -4.832.118zm17.64-1.324.619 1.393a9.944 9.944 0 0 0 -3.337 2.17l-1.711-.4a11.537 11.537 0 0 1 4.429-3.163zm1.433 3.224.648 1.459-2.367-.552a7.892 7.892 0 0 1 1.719-.907zm-7.18-17.541a1 1 0 0 1 1-1h4a7.008 7.008 0 0 0 7-7 1 1 0 0 1 2 0 9.011 9.011 0 0 1 -9 9h-4a1 1 0 0 1 -1-1zm-19.783 6.523a1 1 0 0 0 .826.438l21.449.039.653 1.468-18.7 2.284a1 1 0 0 0 -.733 1.512l2.513 4.132a9.8 9.8 0 0 0 -1.541.988c-.094.075-.177.161-.268.239l-9.116-14.623h2.53zm-9.217-8.523a1 1 0 0 1 1-1h8a5.008 5.008 0 0 1 4.9 4h-10.9a3 3 0 0 1 -3-3zm6 31a1 1 0 0 1 -2 0v-2a1 1 0 0 1 1-1h1zm8.1-3a5 5 0 1 0 0-2h-2.03a7.721 7.721 0 0 1 9.415-6.527l15.392 3.591a4 4 0 0 1 1.061.433l1.948 4.382a4.008 4.008 0 0 1 -3.009 3.056l-15.392 3.592a7.721 7.721 0 0 1 -9.415-6.527zm1.9-1a3 3 0 1 1 3 3 3 3 0 0 1 -3-3zm-3.558 6.427-5.342 6.573h-2.576l6.716-8.267a9.676 9.676 0 0 0 1.202 1.694zm-2.442 12.573h-10v-1a3 3 0 0 1 3-3h4a3 3 0 0 1 3 3zm.974-4h34.052a4.954 4.954 0 0 0 -.925 2h-32.201a4.954 4.954 0 0 0 -.926-2zm45.026 4h-10v-1a3 3 0 0 1 3-3h4a3 3 0 0 1 3 3z" fill="#001738" data-original="#3b8686" style="" class=""/><path d="m31 42h6a1 1 0 0 0 0-2h-6a1 1 0 0 0 0 2z" fill="#001738" data-original="#3b8686" style="" class=""/></g></g></g></g></g></svg>
