<?xml version="1.0"?>
<svg xmlns="http://www.w3.org/2000/svg" xmlns:xlink="http://www.w3.org/1999/xlink" xmlns:svgjs="http://svgjs.com/svgjs" version="1.1" width="512" height="512" x="0" y="0" viewBox="0 0 64 64" style="enable-background:new 0 0 512 512" xml:space="preserve" class=""><g><g xmlns="http://www.w3.org/2000/svg" id="Twotone"><g id="Color_copy_2" data-name="Color copy 2"><g><path d="m32 10-22 19v32h5v-20h14v20h25v-32zm15 43h-12v-12h12z" fill="#eeeefd" data-original="#a8dba8" style="" class=""/><path d="m6.625 29h4.834l20.542-17 20.541 17h4.833l-25.374-21z" fill="#eeeefd" data-original="#cff09e" style="" class=""/><path d="m32.001 12-21.001 17h42z" fill="#5956e9" data-original="#79bd9a" style="" class=""/><path d="m42 5h10v4h-10z" fill="#eeeefd" data-original="#a8dba8" style="" class=""/><path d="m50 19.896v-10.896h-6v5.931z" fill="#eeeefd" data-original="#a8dba8" style="" class=""/><path d="m29 19h6v6h-6z" fill="#eeeefd" data-original="#cff09e" style="" class=""/><path d="m33 53h16v4h-16z" fill="#5956e9" data-original="#79bd9a" style="" class=""/><g fill="#cff09e"><path d="m22 33a2 2 0 0 1 2 2v2a0 0 0 0 1 0 0h-4a0 0 0 0 1 0 0v-2a2 2 0 0 1 2-2z" fill="#eeeefd" data-original="#cff09e" style="" class=""/><path d="m41 33a2 2 0 0 1 2 2v2a0 0 0 0 1 0 0h-4a0 0 0 0 1 0 0v-2a2 2 0 0 1 2-2z" fill="#eeeefd" data-original="#cff09e" style="" class=""/><path d="m41 47h-6v-6z" fill="#eeeefd" data-original="#cff09e" style="" class=""/><path d="m47 47h-6v-6z" fill="#eeeefd" data-original="#cff09e" style="" class=""/><path d="m41 53h-6v-6z" fill="#eeeefd" data-original="#cff09e" style="" class=""/><path d="m47 53h-6v-6z" fill="#eeeefd" data-original="#cff09e" style="" class=""/><path d="m18 50v-9h-3v20h14v-3h-3a8 8 0 0 1 -8-8z" fill="#eeeefd" data-original="#cff09e" style="" class=""/></g></g></g><g id="Stroke_Close_copy" data-name="Stroke Close copy"><g fill="#3b8686"><path d="m61.638 28.229-10.638-8.803v-9.426h1a1 1 0 0 0 1-1v-4a1 1 0 0 0 -1-1h-10a1 1 0 0 0 -1 1v4a1 1 0 0 0 1 1h1v2.805l-10.361-8.576a1 1 0 0 0 -1.276 0l-29 24a1 1 0 0 0 .637 1.771h6.5v31a1 1 0 0 0 1 1h43a1 1 0 0 0 1-1v-31h6.5a1 1 0 0 0 .638-1.771zm-18.638-22.229h8v2h-8zm2 4h4v7.77l-4-3.31zm-4 24a1 1 0 0 1 1 1v1h-2v-1a1 1 0 0 1 1-1zm-26.764-6 17.764-14.7 17.765 14.7zm7.764 6a1 1 0 0 1 1 1v1h-2v-1a1 1 0 0 1 1-1zm-6 26v-18h12v18zm14 0v-19a1 1 0 0 0 -1-1h-14a1 1 0 0 0 -1 1v19h-2.5v-30h9.5v2.184a3 3 0 0 0 -2 2.816v2a1 1 0 0 0 1 1h4a1 1 0 0 0 1-1v-2a3 3 0 0 0 -2-2.816v-2.184h17v2.184a3 3 0 0 0 -2 2.816v2a1 1 0 0 0 1 1h4a1 1 0 0 0 1-1v-2a3 3 0 0 0 -2-2.816v-2.184h10.5v30zm22.9-32-20.261-16.771a1 1 0 0 0 -1.276 0l-20.263 16.771h-5.323l26.223-21.7 26.224 21.7z" fill="#001738" data-original="#3b8686" style="" class=""/><path d="m35 18h-6a1 1 0 0 0 -1 1v6a1 1 0 0 0 1 1h6a1 1 0 0 0 1-1v-6a1 1 0 0 0 -1-1zm-1 6h-4v-4h4z" fill="#001738" data-original="#3b8686" style="" class=""/><path d="m49 52h-1v-11a1 1 0 0 0 -1-1h-12a1 1 0 0 0 -1 1v11h-1a1 1 0 0 0 -1 1v4a1 1 0 0 0 1 1h16a1 1 0 0 0 1-1v-4a1 1 0 0 0 -1-1zm-7-4h4v4h-4zm4-2h-4v-4h4zm-10-4h4v4h-4zm0 6h4v4h-4zm12 8h-14v-2h14z" fill="#001738" data-original="#3b8686" style="" class=""/><path d="m25 46a1 1 0 0 0 -1 1v4a1 1 0 0 0 2 0v-4a1 1 0 0 0 -1-1z" fill="#001738" data-original="#3b8686" style="" class=""/></g></g></g></g></svg>
