<?xml version="1.0"?>
<svg xmlns="http://www.w3.org/2000/svg" xmlns:xlink="http://www.w3.org/1999/xlink" xmlns:svgjs="http://svgjs.com/svgjs" version="1.1" width="512" height="512" x="0" y="0" viewBox="0 0 64 64" style="enable-background:new 0 0 512 512" xml:space="preserve" class=""><g><g xmlns="http://www.w3.org/2000/svg" id="Twotone"><g id="Color_copy_2" data-name="Color copy 2"><g fill="#cff09e"><path d="m53 25h-2.43l.78 5.43a4.008 4.008 0 0 1 -3.96 4.57h-30.78a4.008 4.008 0 0 1 -3.96-4.57l.78-5.43h-2.43l-4 12h50z" fill="#eeeefd" data-original="#cff09e" style="" class=""/><path d="m31.56 51a2.053 2.053 0 0 0 .06.49 1.992 1.992 0 0 0 1.94 1.51h1.8l-.36 4h-6l-1-11h8l-.27 3h-2.17a2.006 2.006 0 0 0 -2 2z" fill="#eeeefd" data-original="#cff09e" style="" class=""/><path d="m3 32a29.01 29.01 0 0 0 53.81 15.04 28.987 28.987 0 0 1 -47.03-2.27c.11-.05.22-.1.34-.15a1.891 1.891 0 0 0 .98-.84 23.739 23.739 0 0 1 -3.1-11.78z" fill="#eeeefd" data-original="#cff09e" style="" class=""/></g><path d="m22 25v12l6 9h8l6-9v-12a4 4 0 0 0 -4-4h-12a4 4 0 0 0 -4 4z" fill="#5956e9" data-original="#79bd9a" style="" class=""/><path d="m58.46 20.13a36.327 36.327 0 0 1 -4.529 2.114 2 2 0 0 0 -1.147 2.538 22.031 22.031 0 0 1 0 14.436 2 2 0 0 0 1.147 2.538 36.327 36.327 0 0 1 4.529 2.114 29.006 29.006 0 0 0 0-23.74z" fill="#5956e9" data-original="#79bd9a" style="" class=""/><path d="m5.54 20.13a29.006 29.006 0 0 0 0 23.74 36.327 36.327 0 0 1 4.529-2.114 2 2 0 0 0 1.147-2.538 22.031 22.031 0 0 1 0-14.436 2 2 0 0 0 -1.147-2.538 36.327 36.327 0 0 1 -4.529-2.114z" fill="#5956e9" data-original="#79bd9a" style="" class=""/><circle cx="32" cy="32" fill="#eeeefd" r="6" data-original="#cff09e" style="" class=""/></g><g id="Stroke_Close_copy" fill="#3b8686" data-name="Stroke Close copy"><path d="m32 25a7 7 0 1 0 7 7 7.008 7.008 0 0 0 -7-7zm0 12a5 5 0 1 1 5-5 5.006 5.006 0 0 1 -5 5z" fill="#001738" data-original="#3b8686" style="" class=""/><path d="m32 31a1 1 0 0 0 0-2 3 3 0 0 0 0 6 1 1 0 0 0 0-2 1 1 0 0 1 0-2z" fill="#001738" data-original="#3b8686" style="" class=""/><path d="m62 32a29.577 29.577 0 0 0 -2.629-12.283l-.009-.012a30 30 0 0 0 -54.724 0l-.009.012a30.008 30.008 0 0 0 0 24.566l.009.012a30 30 0 0 0 54.724 0l.009-.012a29.577 29.577 0 0 0 2.629-12.283zm-2 0a27.63 27.63 0 0 1 -2.028 10.474 38.686 38.686 0 0 0 -3.679-1.65 1 1 0 0 1 -.564-1.277 23.045 23.045 0 0 0 0-15.095 1 1 0 0 1 .565-1.276 38.779 38.779 0 0 0 3.678-1.65 27.63 27.63 0 0 1 2.028 10.474zm-17-2h5.219l.5 2h-5.719zm0 4h7a1 1 0 0 0 .97-1.243l-1-4a1 1 0 0 0 -.97-.757h-6v-2h9.108a20.515 20.515 0 0 1 .5 10h-9.608zm8.673-10h-8.773a5.009 5.009 0 0 0 -4.9-4h-12a5.009 5.009 0 0 0 -4.9 4h-8.773a2.982 2.982 0 0 0 -.969-2.108 22.971 22.971 0 0 1 41.284 0 2.978 2.978 0 0 0 -.969 2.108zm-16.208 21h-6.93l-5.535-8.3v-11.7a3 3 0 0 1 3-3h12a3 3 0 0 1 3 3v11.7zm-14.465-13h-5.719l.5-2h5.219zm0-4h-6a1 1 0 0 0 -.97.757l-1 4a1 1 0 0 0 .97 1.243h7v2h-9.6a20.515 20.515 0 0 1 .495-10h9.105zm-8.84 10.888c-.1-.292-.18-.592-.268-.888h9.573l5.562 8.343.75 8.25a23.027 23.027 0 0 1 -16.419-12.486 3 3 0 0 0 .802-3.219zm17.652 16-.712-7.888h5.81l-.717 7.883c-.729.069-1.457.117-2.193.117s-1.464-.048-2.188-.117zm7.161-8.54 5.562-8.348h9.573c-.088.3-.166.595-.268.888a3 3 0 0 0 .8 3.22 23.028 23.028 0 0 1 -16.417 12.485zm-4.973-42.348a28.04 28.04 0 0 1 25.125 15.689q-1.29.669-2.718 1.265a24.967 24.967 0 0 0 -44.814 0q-1.428-.594-2.718-1.265a28.04 28.04 0 0 1 25.125-15.689zm-28 28a27.63 27.63 0 0 1 2.028-10.474 38.686 38.686 0 0 0 3.679 1.65 1 1 0 0 1 .564 1.277 23.045 23.045 0 0 0 0 15.1 1 1 0 0 1 -.565 1.276 38.779 38.779 0 0 0 -3.678 1.65 27.63 27.63 0 0 1 -2.028-10.479zm28 28a28.04 28.04 0 0 1 -25.125-15.689q1.29-.669 2.718-1.265a24.967 24.967 0 0 0 44.814 0q1.428.594 2.718 1.265a28.04 28.04 0 0 1 -25.125 15.689z" fill="#001738" data-original="#3b8686" style="" class=""/></g></g></g></svg>
