<?xml version="1.0"?>
<svg xmlns="http://www.w3.org/2000/svg" xmlns:xlink="http://www.w3.org/1999/xlink" xmlns:svgjs="http://svgjs.com/svgjs" version="1.1" width="512" height="512" x="0" y="0" viewBox="0 0 480 480" style="enable-background:new 0 0 512 512" xml:space="preserve" class=""><g><path xmlns="http://www.w3.org/2000/svg" d="m8 8h392v64h-392zm0 0" fill="#5956e9" data-original="#a8dba8" style="" class=""/><path xmlns="http://www.w3.org/2000/svg" d="m312 320h-48c-106.039062 0-192-85.960938-192-192v-120h-64v392h304zm0 0" fill="#eeeefd" data-original="#cff09e" style="" class=""/><path xmlns="http://www.w3.org/2000/svg" d="m240 360h-176l16-176h144zm0 0" fill="#5956e9" data-original="#a8dba8" style="" class=""/><path xmlns="http://www.w3.org/2000/svg" d="m184 288c0 17.671875-14.328125 32-32 32s-32-14.328125-32-32 14.328125-32 32-32 32 14.328125 32 32zm0 0" fill="#eeeefd" data-original="#79bd9a" style="" class=""/><path xmlns="http://www.w3.org/2000/svg" d="m448 432c-48.601562 0-88-39.398438-88-88v-118.398438l-48 38.398438v208h160v-40zm0 0" fill="#5956e9" data-original="#a8dba8" style="" class=""/><g xmlns="http://www.w3.org/2000/svg" fill="#3b8686"><path d="m56 40c0 4.417969-3.582031 8-8 8s-8-3.582031-8-8 3.582031-8 8-8 8 3.582031 8 8zm0 0" fill="#001738" data-original="#3b8686" style="" class=""/><path d="m88 40c0 4.417969-3.582031 8-8 8s-8-3.582031-8-8 3.582031-8 8-8 8 3.582031 8 8zm0 0" fill="#001738" data-original="#3b8686" style="" class=""/><path d="m120 40c0 4.417969-3.582031 8-8 8s-8-3.582031-8-8 3.582031-8 8-8 8 3.582031 8 8zm0 0" fill="#001738" data-original="#3b8686" style="" class=""/><path d="m368 32h-200c-4.417969 0-8 3.582031-8 8s3.582031 8 8 8h200c4.417969 0 8-3.582031 8-8s-3.582031-8-8-8zm0 0" fill="#001738" data-original="#3b8686" style="" class=""/><path d="m476.960938 257.761719-68.960938-55.203125v-194.558594c0-4.417969-3.582031-8-8-8h-392c-4.417969 0-8 3.582031-8 8v392c0 4.417969 3.582031 8 8 8h296v64c0 4.417969 3.582031 8 8 8h160c4.417969 0 8-3.582031 8-8v-208c-.011719-2.433594-1.128906-4.730469-3.039062-6.238281zm-460.960938-241.761719h376v48h-376zm0 376v-312h376v112c-1.847656-.027344-3.644531.628906-5.039062 1.839844-4.722657 3.839844-8 6.558594-10.242188 8.558594l-18.078125 14.402343c-7.847656-12.246093-20.824219-20.273437-35.285156-21.828125-14.460938-1.554687-28.84375 3.53125-39.117188 13.828125l-6.398437 6.398438c-9.351563 9.363281-23.5 12-35.601563 6.640625l-6.957031-3.121094-3.28125-35.4375c-.375-4.136719-3.847656-7.296875-8-7.28125h-24v-24c0-26.507812-21.492188-48-48-48s-48 21.492188-48 48v24h-24c-4.152344-.015625-7.625 3.144531-8 7.28125l-16 176c-.203125 2.242188.550781 4.46875 2.074219 6.128906 1.519531 1.65625 3.671875 2.597656 5.925781 2.589844h176c2.253906.007812 4.40625-.933594 5.925781-2.589844 1.523438-1.660156 2.277344-3.886718 2.074219-6.128906l-11.199219-122.722656c17.921875 7.457031 38.570313 3.382812 52.320313-10.320313l6.398437-6.398437c7.082031-7.03125 17.039063-10.355469 26.921875-8.988282 9.886719 1.363282 18.566406 7.261719 23.480469 15.949219l-38.882813 30.960938c-1.910156 1.507812-3.027343 3.804687-3.039062 6.238281v128zm96-160c4.417969 0 8-3.582031 8-8v-32h64v32c0 4.417969 3.582031 8 8 8s8-3.582031 8-8v-32h16.71875l14.480469 160h-158.398438l14.480469-160h16.71875v32c0 4.417969 3.582031 8 8 8zm72-56h-64v-24c0-17.671875 14.328125-32 32-32s32 14.328125 32 32zm280 288h-144v-196.160156l33.679688-26.71875 12.878906 24c-15.011719 12.359375-18.957032 33.722656-9.355469 50.632812s29.976563 24.460938 48.28125 17.898438 29.238281-25.335938 25.910156-44.496094c-3.324219-19.15625-19.949219-33.148438-39.394531-33.15625-3.832031.039062-7.636719.660156-11.28125 1.839844l-14.320312-26.878906 20.242187-16 .558594-.480469 4.878906-4 72 57.519531zm-89.679688-184 10.640626 19.839844c1.222656 2.726562 3.867187 4.542968 6.851562 4.710937s5.8125-1.34375 7.332031-3.917969c1.523438-2.570312 1.480469-5.777343-.105469-8.3125l-10.558593-20.320312c1.171875-.082031 2.347656-.082031 3.519531 0 11.34375-.097656 21.207031 7.757812 23.648438 18.835938 2.4375 11.078124-3.210938 22.351562-13.546876 27.027343-10.332031 4.679688-22.53125 1.480469-29.242187-7.667969-6.710937-9.144531-6.101563-21.738281 1.460937-30.195312zm0 0" fill="#001738" data-original="#3b8686" style="" class=""/><path d="m352 424c-4.417969 0-8 3.582031-8 8s3.582031 8 8 8h80c4.417969 0 8-3.582031 8-8s-3.582031-8-8-8zm0 0" fill="#001738" data-original="#3b8686" style="" class=""/><path d="m368 408h48c4.417969 0 8-3.582031 8-8s-3.582031-8-8-8h-48c-4.417969 0-8 3.582031-8 8s3.582031 8 8 8zm0 0" fill="#001738" data-original="#3b8686" style="" class=""/><path d="m152 328c22.089844 0 40-17.910156 40-40s-17.910156-40-40-40-40 17.910156-40 40 17.910156 40 40 40zm0-64c13.253906 0 24 10.746094 24 24s-10.746094 24-24 24-24-10.746094-24-24 10.746094-24 24-24zm0 0" fill="#001738" data-original="#3b8686" style="" class=""/><path d="m288 128h64c4.417969 0 8-3.582031 8-8s-3.582031-8-8-8h-64c-4.417969 0-8 3.582031-8 8s3.582031 8 8 8zm0 0" fill="#001738" data-original="#3b8686" style="" class=""/><path d="m352 144h-40c-4.417969 0-8 3.582031-8 8s3.582031 8 8 8h40c4.417969 0 8-3.582031 8-8s-3.582031-8-8-8zm0 0" fill="#001738" data-original="#3b8686" style="" class=""/><path d="m40 120h24c4.417969 0 8-3.582031 8-8s-3.582031-8-8-8h-24c-4.417969 0-8 3.582031-8 8s3.582031 8 8 8zm0 0" fill="#001738" data-original="#3b8686" style="" class=""/><path d="m72 144c0-4.417969-3.582031-8-8-8h-24c-4.417969 0-8 3.582031-8 8s3.582031 8 8 8h24c4.417969 0 8-3.582031 8-8zm0 0" fill="#001738" data-original="#3b8686" style="" class=""/></g></g></svg>
