<?xml version="1.0"?>
<svg xmlns="http://www.w3.org/2000/svg" xmlns:xlink="http://www.w3.org/1999/xlink" xmlns:svgjs="http://svgjs.com/svgjs" version="1.1" width="512" height="512" x="0" y="0" viewBox="0 0 479 479.6302" style="enable-background:new 0 0 512 512" xml:space="preserve" class=""><g><path xmlns="http://www.w3.org/2000/svg" d="m384.328125 199.628906-40 80h-20l5.214844-10.398437c4.898437-9.761719 4.386719-21.367188-1.351563-30.660157-5.738281-9.292968-15.886718-14.949218-26.808594-14.941406h-203.457031l-9.597656-24h-16v224c0 26.511719 21.488281 48 48 48h224c26.507813 0 48-21.488281 48-48v-224zm0 0" fill="#eeeefd" data-original="#a8dba8" style="" class=""/><path xmlns="http://www.w3.org/2000/svg" d="m304.328125 431.628906c-106.039063 0-192-85.960937-192-192v-16h-14.402344l-9.597656-24h-16v224c0 26.511719 21.488281 48 48 48h224c23.402344-.023437 43.378906-16.921875 47.277344-40zm0 0" fill="#5956e9" data-original="#79bd9a" style="" class=""/><path xmlns="http://www.w3.org/2000/svg" d="m72.328125 271.652344v64l272-56v-8zm0 0" fill="#5956e9" data-original="#79bd9a" style="" class=""/><path xmlns="http://www.w3.org/2000/svg" d="m301.382812 223.628906h-203.457031l22.402344 56h204l5.214844-10.398437c4.898437-9.761719 4.386719-21.367188-1.351563-30.660157-5.738281-9.292968-15.886718-14.949218-26.808594-14.941406zm0 0" fill="#eeeefd" data-original="#cff09e" style="" class=""/><path xmlns="http://www.w3.org/2000/svg" d="m289.574219 393.015625-51.816407-47.242187c-3.078124-2.800782-7.777343-2.800782-10.855468 0l-51.816406 47.242187c-2.53125 2.308594-3.40625 5.921875-2.214844 9.136719 1.191406 3.210937 4.214844 5.378906 7.640625 5.476562h11.878906c2.113281.003906 4.140625.847656 5.632813 2.351563 1.488281 1.5 2.316406 3.535156 2.304687 5.648437v56h64v-56c-.015625-2.113281.816406-4.148437 2.308594-5.648437 1.488281-1.503907 3.519531-2.347657 5.632812-2.351563h11.871094c3.429687-.09375 6.453125-2.261718 7.648437-5.472656 1.195313-3.214844.316407-6.832031-2.214843-9.140625zm0 0" fill="#eeeefd" data-original="#cff09e" style="" class=""/><path xmlns="http://www.w3.org/2000/svg" d="m181.476562 387.191406-6.398437 5.824219c-2.53125 2.308594-3.410156 5.925781-2.214844 9.140625 1.195313 3.210938 4.21875 5.378906 7.648438 5.472656h11.878906c2.113281.003906 4.140625.847656 5.632813 2.351563 1.488281 1.5 2.316406 3.535156 2.304687 5.648437v56h64v-44.175781c-30.484375-6.472656-58.925781-20.292969-82.851563-40.261719zm0 0" fill="#eeeefd" data-original="#a8dba8" style="" class=""/><path xmlns="http://www.w3.org/2000/svg" d="m72.328125 319.628906h48c8.835937 0 16 7.164063 16 16v32c0 8.835938-7.164063 16-16 16h-48zm0 0" fill="#eeeefd" data-original="#cff09e" style="" class=""/><path xmlns="http://www.w3.org/2000/svg" d="m236.0625 9.621094 11.335938 16.546875c.585937.855469 1.449218 1.484375 2.449218 1.773437l19.199219 5.671875c1.433594.421875 2.566406 1.523438 3.027344 2.945313.460937 1.417968.195312 2.976562-.714844 4.160156l-12.199219 15.886719c-.632812.824219-.964844 1.84375-.9375 2.878906l.550782 20.042969c.042968 1.492187-.65625 2.90625-1.863282 3.785156-1.207031.878906-2.769531 1.105469-4.175781.605469l-18.886719-6.6875c-.984375-.34375-2.050781-.34375-3.035156 0l-18.894531 6.71875c-1.40625.5-2.96875.273437-4.175781-.605469-1.207032-.875-1.90625-2.292969-1.863282-3.785156l.550782-20.039063c.035156-1.042969-.296876-2.058593-.933594-2.882812l-12.226563-15.917969c-.910156-1.183594-1.179687-2.738281-.71875-4.160156.460938-1.417969 1.59375-2.519532 3.023438-2.945313l19.199219-5.671875c1-.289062 1.867187-.917968 2.457031-1.773437l11.335937-16.546875c.839844-1.246094 2.246094-1.992188 3.746094-1.992188 1.503906 0 2.910156.746094 3.75 1.992188zm0 0" fill="#eeeefd" data-original="#cff09e" style="" class=""/><g xmlns="http://www.w3.org/2000/svg" fill="#3b8686"><path d="m461.980469 250.03125-56-56c-1.5-1.503906-3.527344-2.363281-5.652344-2.402344h-336c-2.125.023438-4.152344.867188-5.664063 2.351563l-56 56c-3.128906 3.128906-3.132812 8.199219-.003906 11.324219 3.125 3.128906 8.195313 3.132812 11.320313.003906l50.347656-50.335938v212.65625c.035156 30.914063 25.085937 55.964844 56 56h224c30.910156-.035156 55.964844-25.085937 56-56v-212.65625l50.34375 50.335938c3.160156 2.835937 7.980469 2.707031 10.988281-.289063 3.003906-3 3.148438-7.820312.320313-10.988281zm-97.460938-42.402344-23.601562 58.976563c-1.203125 3.046875-4.148438 5.039062-7.421875 5.023437h-202.328125c-3.273438.003906-6.214844-1.984375-7.433594-5.023437l-23.59375-58.976563zm-284.191406 152h24c4.417969 0 8-3.582031 8-8 0-4.417968-3.582031-8-8-8h-24v-16h40c4.417969 0 8 3.582032 8 8v32c0 4.417969-3.582031 8-8 8h-40zm128 104v-48c.011719-4.234375-1.660156-8.300781-4.652344-11.304687-2.988281-3-7.050781-4.691407-11.285156-4.695313l-11.914063-.726562 51.890626-47.238282 51.816406 47.238282-.042969.726562h-11.878906c-8.8125.035156-15.933594 7.191406-15.933594 16v48zm136 0h-72l-.050781-48h11.882812c6.691406.007813 12.691406-4.132812 15.054688-10.398437 2.5-6.34375.808594-13.570313-4.242188-18.152344l-51.804687-47.246094c-6.121094-5.621093-15.523438-5.621093-21.640625 0l-51.816406 47.199219c-5.050782 4.582031-6.738282 11.816406-4.234376 18.160156 2.347657 6.273438 8.34375 10.433594 15.042969 10.4375h11.808594v48h-72c-22.082031-.023437-39.976563-17.917968-40-40v-32h40c13.253906 0 24-10.742187 24-24v-32c0-13.253906-10.746094-24-24-24h-40v-104h2.582031l25.96875 64.921875c3.621094 9.128907 12.464844 15.113281 22.289063 15.078125h202.328125c9.820312.035156 18.664062-5.949218 22.285156-15.078125l25.96875-64.921875h2.578125v112h-64c-4.421875 0-8 3.582032-8 8 0 4.417969 3.578125 8 8 8h64v32h-32c-4.421875 0-8 3.582032-8 8 0 4.417969 3.578125 8 8 8h32v40c-.027344 22.082032-17.921875 39.976563-40 40zm0 0" fill="#2b2942" data-original="#3b8686" style="" class=""/><path d="m198.398438 60.503906-.472657 18.804688c-.113281 4.128906 1.816407 8.050781 5.15625 10.480468 3.339844 2.425782 7.664063 3.054688 11.554688 1.671876l17.691406-6.3125 17.726563 6.3125c1.347656.476562 2.765624.71875 4.191406.722656 3.382812-.003906 6.621094-1.371094 8.980468-3.792969 2.359376-2.425781 3.636719-5.699219 3.546876-9.082031l-.519532-18.804688 11.464844-14.90625c2.523438-3.273437 3.265625-7.585937 1.984375-11.515625-1.277344-3.933593-4.417969-6.976562-8.382813-8.140625l-18.042968-5.320312-10.640625-15.511719c-2.460938-3.21875-6.28125-5.109375-10.335938-5.109375-4.050781 0-7.875 1.890625-10.335937 5.109375l-10.636719 15.519531-18.035156 5.320313c-3.964844 1.167969-7.101563 4.210937-8.378907 8.140625-1.28125 3.929687-.539062 8.238281 1.980469 11.515625zm18.679687-24.875c2.757813-.816406 5.152344-2.554687 6.785156-4.925781l8.464844-12.375 8.460937 12.34375c1.628907 2.378906 4.027344 4.125 6.792969 4.949219l14.398438 4.234375-9.140625 11.855469c-1.769532 2.285156-2.691406 5.109374-2.609375 8l.40625 14.96875-14.109375-5.015626c-2.714844-.960937-5.679688-.960937-8.394532 0l-14.117187 5.015626.414063-14.953126c.082031-2.886718-.832032-5.710937-2.589844-8l-9.113282-11.871093zm0 0" fill="#2b2942" data-original="#3b8686" style="" class=""/><path d="m106.671875 149.308594c3.160156 2.835937 7.980469 2.707031 10.988281-.289063 3.003906-3 3.148438-7.820312.320313-10.988281l-56-56c-3.160157-2.835938-7.980469-2.707031-10.988281.289062-3.003907 3-3.144532 7.820313-.320313 10.988282zm0 0" fill="#2b2942" data-original="#3b8686" style="" class=""/><path d="m338.671875 165.308594c3.121094 3.125 8.1875 3.125 11.308594 0l44-44c2.828125-3.167969 2.683593-7.988282-.320313-10.988282-3.007812-2.996093-7.828125-3.125-10.988281-.289062l-44 44c-3.101563 3.121094-3.101563 8.160156 0 11.277344zm0 0" fill="#2b2942" data-original="#3b8686" style="" class=""/><path d="m268.511719 166.382812c3.5 2.675782 8.511719 2.015626 11.199219-1.480468l30.953124-40.375c2.347657-3.511719 1.5625-8.242188-1.792968-10.808594-3.355469-2.5625-8.128906-2.078125-10.898438 1.113281l-30.949218 40.375c-2.660157 3.5-1.996094 8.492188 1.488281 11.175781zm0 0" fill="#2b2942" data-original="#3b8686" style="" class=""/><path d="m184.726562 164.621094c2.535157 3.621094 7.523438 4.503906 11.144532 1.96875s4.5-7.523438 1.96875-11.144532l-22.945313-32.800781c-2.535156-3.617187-7.523437-4.5-11.144531-1.964843-3.621094 2.53125-4.5 7.523437-1.96875 11.140624zm0 0" fill="#2b2942" data-original="#3b8686" style="" class=""/><path d="m120.328125 79.628906h8v8c0 4.417969 3.578125 8 8 8 4.417969 0 8-3.582031 8-8v-8h8c4.417969 0 8-3.582031 8-8 0-4.417968-3.582031-8-8-8h-8v-8c0-4.417968-3.582031-8-8-8-4.421875 0-8 3.582032-8 8v8h-8c-4.421875 0-8 3.582032-8 8 0 4.417969 3.578125 8 8 8zm0 0" fill="#2b2942" data-original="#3b8686" style="" class=""/><path d="m336.328125 55.628906h8v8c0 4.417969 3.578125 8 8 8 4.417969 0 8-3.582031 8-8v-8h8c4.417969 0 8-3.582031 8-8 0-4.417968-3.582031-8-8-8h-8v-8c0-4.417968-3.582031-8-8-8-4.421875 0-8 3.582032-8 8v8h-8c-4.421875 0-8 3.582032-8 8 0 4.417969 3.578125 8 8 8zm0 0" fill="#2b2942" data-original="#3b8686" style="" class=""/><path d="m24.328125 167.628906h8v8c0 4.417969 3.578125 8 8 8 4.417969 0 8-3.582031 8-8v-8h8c4.417969 0 8-3.582031 8-8 0-4.417968-3.582031-8-8-8h-8v-8c0-4.417968-3.582031-8-8-8-4.421875 0-8 3.582032-8 8v8h-8c-4.421875 0-8 3.582032-8 8 0 4.417969 3.578125 8 8 8zm0 0" fill="#2b2942" data-original="#3b8686" style="" class=""/><path d="m416.328125 95.628906h8v8c0 4.417969 3.578125 8 8 8 4.417969 0 8-3.582031 8-8v-8h8c4.417969 0 8-3.582031 8-8 0-4.417968-3.582031-8-8-8h-8v-8c0-4.417968-3.582031-8-8-8-4.421875 0-8 3.582032-8 8v8h-8c-4.421875 0-8 3.582032-8 8 0 4.417969 3.578125 8 8 8zm0 0" fill="#2b2942" data-original="#3b8686" style="" class=""/></g></g></svg>
