<?xml version="1.0"?>
<svg xmlns="http://www.w3.org/2000/svg" xmlns:xlink="http://www.w3.org/1999/xlink" xmlns:svgjs="http://svgjs.com/svgjs" version="1.1" width="512" height="512" x="0" y="0" viewBox="0 0 480 480.0399" style="enable-background:new 0 0 512 512" xml:space="preserve" class=""><g><path xmlns="http://www.w3.org/2000/svg" d="m208.800781 461.800781c-14.523437-3.355469-24.808593-16.292969-24.800781-31.199219v-120c.027344-14.464843 5.78125-28.328124 16-38.5625v-40h-32v186.640626l-80 53.359374h165.359375zm0 0" fill="#eeeefd" data-original="#cff09e" style="" class=""/><path xmlns="http://www.w3.org/2000/svg" d="m257.921875 144.039062c-15.222656 16.488282-36.667969 25.824219-59.105469 25.734376-22.441406-.09375-43.808594-9.601563-58.894531-26.214844l-72-79.4375h-59.921875l174.640625 191.917968 177.359375-192h-28.320312zm0 0" fill="#eeeefd" data-original="#cff09e" style="" class=""/><path xmlns="http://www.w3.org/2000/svg" d="m184 104.039062c-48.070312-7.988281-96.929688-10.164062-145.519531-6.480468l144.160156 158.480468 133.679687-144.71875c-44.238281 2.417969-88.609374-.023437-132.320312-7.28125zm0 0" fill="#eeeefd" data-original="#a8dba8" style="" class=""/><path xmlns="http://www.w3.org/2000/svg" d="m216 160.039062c0 17.675782-14.324219 32-32 32-17.671875 0-32-14.324218-32-32 0-17.671874 14.328125-32 32-32 17.675781 0 32 14.328126 32 32zm0 0" fill="#5956e9" data-original="#79bd9a" style="" class=""/><g xmlns="http://www.w3.org/2000/svg" fill="#3b8686"><path d="m367.359375 60.839844c-1.273437-2.925782-4.167969-4.8125-7.359375-4.800782h-73.117188l39.039063-42.558593c3.003906-3.269531 2.789063-8.355469-.480469-11.359375-3.269531-3.003906-8.355468-2.789063-11.359375.480468l-48.960937 53.4375h-257.121094c-3.15625.007813-6.015625 1.871094-7.292969 4.761719-1.28125 2.886719-.7421872 6.253907 1.375 8.597657l157.917969 173.601562v171.441406l-76.398438 50.957032c-2.914062 1.957031-4.210937 5.585937-3.199218 8.945312 1.007812 3.359375 4.089844 5.667969 7.597656 5.695312h192c3.507812-.027343 6.589844-2.335937 7.601562-5.695312 1.007813-3.359375-.289062-6.988281-3.199218-8.945312l-76.402344-50.957032v-174.402344l114.320312-123.359374 43.519532-47.199219c2.183594-2.320313 2.78125-5.714844 1.519531-8.640625zm-116.878906 11.199218-26.480469 29.121094c-12.957031-1.359375-25.757812-2.878906-38.558594-5.039062-47.382812-7.863282-95.527344-10.144532-143.441406-6.800782l-16-17.28125zm-67.757813 172.160157-34.320312-37.679688 1.519531-1.039062 11.4375-12.5625c6.652344 4.609375 14.546875 7.09375 22.640625 7.121093 22.09375 0 40-17.90625 40-40-.039062-9.253906-3.320312-18.199218-9.277344-25.277343l15.4375-16.882813c17.601563 1.519532 35.359375 2.320313 53.121094 2.320313h14.160156zm15.519532-103.359375c9.425781 7.070312 12.324218 19.945312 6.835937 30.375-5.484375 10.429687-17.734375 15.332031-28.902344 11.566406-11.171875-3.765625-17.953125-15.082031-16.007812-26.707031 1.949219-11.621094 12.046875-20.113281 23.832031-20.035157 5.175781.042969 10.199219 1.753907 14.320312 4.878907zm4-16c-5.597657-3.066406-11.859376-4.714844-18.242188-4.800782-22.089844 0-40 17.910157-40 40 .007812 7.542969 2.171875 14.929688 6.242188 21.28125l-12.160157 13.28125-82.082031-90.082031c42.386719-1.996093 84.867188.527344 126.722656 7.519531 9.117188 1.496094 18.320313 2.773438 27.597656 3.839844zm-6.640626 300.71875 58 38.480468h-139.199218l58-38.640624c2.257812-1.484376 3.613281-4.015626 3.597656-6.71875v-158.078126l.722656.796876c1.511719 1.675781 3.660156 2.636718 5.917969 2.640624 2.246094.015626 4.394531-.914062 5.921875-2.558593l3.4375-3.761719v160.960938c-.011719 2.703124 1.34375 5.234374 3.601562 6.71875zm117.121094-322.160156c-22.902344 1.109374-45.847656.894531-68.722656-.636719l28-30.722657h69.519531zm0 0" fill="#001738" data-original="#3b8686" style="" class=""/><path d="m192 160.039062c0 4.417969-3.582031 8-8 8s-8-3.582031-8-8c0-4.417968 3.582031-8 8-8s8 3.582032 8 8zm0 0" fill="#001738" data-original="#3b8686" style="" class=""/></g></g></svg>
