<?xml version="1.0"?>
<svg xmlns="http://www.w3.org/2000/svg" xmlns:xlink="http://www.w3.org/1999/xlink" xmlns:svgjs="http://svgjs.com/svgjs" version="1.1" width="512" height="512" x="0" y="0" viewBox="0 0 64 64" style="enable-background:new 0 0 512 512" xml:space="preserve" class=""><g><g xmlns="http://www.w3.org/2000/svg" id="Twotone"><g id="Color_copy" data-name="Color copy"><g><path d="m30 19v-10a2 2 0 0 1 2-2h8a2 2 0 0 1 2 2v10h4v-10a6 6 0 0 0 -6-6h-8a6 6 0 0 0 -6 6v10z" fill="#eeeefd" data-original="#79bd9a" style="" class=""/><path d="m53 19-5 42h10z" fill="#5956e9" data-original="#a8dba8" style="" class=""/><path d="m58 61-5-42v42z" fill="#eeeefd" data-original="#79bd9a" style="" class=""/><path d="m53 55-5 6h10z" fill="#eeeefd" data-original="#cff09e" style="" class=""/><path d="m43.048 19-1.634 13.719a23 23 0 0 1 -22.838 20.281h-7.624l-.952 8h38l5-42z" fill="#eeeefd" data-original="#cff09e" style="" class=""/><path d="m42.5 46h-23l2-16h23z" fill="#eeeefd" data-original="#79bd9a" style="" class=""/><g fill="#a8dba8"><circle cx="23" cy="39" r="2" fill="#5956e9" data-original="#a8dba8" style="" class=""/><circle cx="29" cy="32" r="2" fill="#5956e9" data-original="#a8dba8" style="" class=""/><circle cx="39" cy="38" r="4" fill="#5956e9" data-original="#a8dba8" style="" class=""/></g><path d="m38 19h5a0 0 0 0 1 0 0v4a2 2 0 0 1 -2 2h-1a2 2 0 0 1 -2-2v-4a0 0 0 0 1 0 0z" fill="#eeeefd" data-original="#cff09e" style="" class=""/><path d="m22 19h5a0 0 0 0 1 0 0v4a2 2 0 0 1 -2 2h-1a2 2 0 0 1 -2-2v-4a0 0 0 0 1 0 0z" fill="#eeeefd" data-original="#cff09e" style="" class=""/><path d="m22 9v14a2 2 0 0 0 2 2 2 2 0 0 0 2-2v-14a2 2 0 0 1 2-2h8a2 2 0 0 1 2 2v14a2 2 0 0 0 2 2 2 2 0 0 0 2-2v-14a6 6 0 0 0 -6-6h-8a6 6 0 0 0 -6 6z" fill="#5956e9" data-original="#a8dba8" style="" class=""/></g></g><g id="Stroke_Close_copy" data-name="Stroke Close copy"><g fill="#3b8686"><path d="m53.993 18.882a1 1 0 0 0 -.993-.882h-6v-9a7.008 7.008 0 0 0 -7-7h-12a7.008 7.008 0 0 0 -7 7v9h-6a1 1 0 0 0 -.993.882l-5 42a1 1 0 0 0 .993 1.118h48a1 1 0 0 0 .993-1.118zm2.615 38.886-2.84-3.409a1.035 1.035 0 0 0 -1.536 0l-2.84 3.409 3.608-30.309zm-.743 2.232h-5.73l2.865-3.437zm-10.865-51v9h-2v-9a6.974 6.974 0 0 0 -2.009-4.9 5.008 5.008 0 0 1 4.009 4.9zm-22 0a5.006 5.006 0 0 1 5-5h8a5.006 5.006 0 0 1 5 5v14a1 1 0 0 1 -2 0v-14a3 3 0 0 0 -3-3h-8a3 3 0 0 0 -3 3v14a1 1 0 0 1 -2 0zm6 9h-2v-9a1 1 0 0 1 1-1h1.184a2.966 2.966 0 0 0 -.184 1zm2-9a1 1 0 0 1 1-1h4a1 1 0 0 1 1 1v9h-6zm-15.112 11h5.112v3a3 3 0 0 0 6 0v-3h10v3a3 3 0 0 0 6 0v-3h8.874l-4.762 40h-35.986z" fill="#2b2942" data-original="#3b8686" style="" class=""/><path d="m42.5 47a1 1 0 0 0 .992-.876l2-16a1 1 0 0 0 -.992-1.124h-23a1 1 0 0 0 -.992.876l-2 16a1 1 0 0 0 .992 1.124zm-12.5-15a1 1 0 1 1 -1-1 1 1 0 0 1 1 1zm-3.816-1a2.966 2.966 0 0 0 -.184 1 3 3 0 0 0 6 0 2.966 2.966 0 0 0 -.184-1h11.551l-.486 3.887a5 5 0 1 0 -.881 7.092l-.383 3.021h-20.984l.463-3.7a2.969 2.969 0 0 0 1.904.7 3 3 0 0 0 0-6 2.968 2.968 0 0 0 -1.279.3l.662-5.3zm15.816 7a3 3 0 1 1 -3-3 3 3 0 0 1 3 3zm-20 1a1 1 0 1 1 1 1 1 1 0 0 1 -1-1z" fill="#2b2942" data-original="#3b8686" style="" class=""/><path d="m20 49a1 1 0 0 0 0 2h7a1 1 0 0 0 0-2z" fill="#2b2942" data-original="#3b8686" style="" class=""/><path d="m36 49h-5a1 1 0 0 0 0 2h5a1 1 0 0 0 0-2z" fill="#2b2942" data-original="#3b8686" style="" class=""/><path d="m44 49h-4a1 1 0 0 0 0 2h4a1 1 0 0 0 0-2z" fill="#2b2942" data-original="#3b8686" style="" class=""/><path d="m35 53h-15a1 1 0 0 0 0 2h15a1 1 0 0 0 0-2z" fill="#2b2942" data-original="#3b8686" style="" class=""/><path d="m42 53h-3a1 1 0 0 0 0 2h3a1 1 0 0 0 0-2z" fill="#2b2942" data-original="#3b8686" style="" class=""/><circle cx="29" cy="42" r="1" fill="#2b2942" data-original="#3b8686" style="" class=""/><circle cx="31" cy="38" r="1" fill="#2b2942" data-original="#3b8686" style="" class=""/></g></g></g></g></svg>
