<?xml version="1.0"?>
<svg xmlns="http://www.w3.org/2000/svg" xmlns:xlink="http://www.w3.org/1999/xlink" xmlns:svgjs="http://svgjs.com/svgjs" version="1.1" width="512" height="512" x="0" y="0" viewBox="0 0 64 64" style="enable-background:new 0 0 512 512" xml:space="preserve" class=""><g><g xmlns="http://www.w3.org/2000/svg" id="Twotone"><g id="Stroke_copy_3" data-name="Stroke copy 3"><g id="Layer_5_copy_7" data-name="Layer 5 copy 7"><g><path d="m46.809 52a6 6 0 1 0 10.382 0z" fill="#eeeefd" data-original="#79bd9a" style="" class=""/><path d="m11.809 52a6 6 0 1 0 10.382 0z" fill="#eeeefd" data-original="#79bd9a" style="" class=""/><g fill="#a8dba8"><path d="m56 28h-1v-6h1a3 3 0 0 1 3 3 3 3 0 0 1 -3 3z" fill="#5956e9" data-original="#a8dba8" style="" class=""/><circle cx="17" cy="55" r="2" fill="#5956e9" data-original="#a8dba8" style="" class=""/><circle cx="52" cy="55" r="2" fill="#5956e9" data-original="#a8dba8" style="" class=""/></g><g><path d="m25 25v4h-22v-16a4 4 0 0 1 4-4h2v1a15.005 15.005 0 0 0 15 15z" fill="#eeeefd" data-original="#cff09e" style="" class=""/><rect fill="#5956e9" height="12" rx="2" width="10" x="9" y="13" data-original="#a8dba8" style="" class=""/><path d="m19 21h-10a2 2 0 0 1 -2-2 2 2 0 0 1 2-2h10a2 2 0 0 1 2 2 2 2 0 0 1 -2 2z" fill="#eeeefd" data-original="#79bd9a" style="" class=""/></g><path d="m6 29h16a0 0 0 0 1 0 0v2a2 2 0 0 1 -2 2h-12a2 2 0 0 1 -2-2v-2a0 0 0 0 1 0 0z" fill="#5956e9" data-original="#a8dba8" style="" class=""/><path d="m31 39h2v-2h-9a13.977 13.977 0 0 0 -12.329 7.373 11.948 11.948 0 0 1 8.329-3.373 6 6 0 0 1 6 6v4h7v-4a5 5 0 0 1 -5-5 3 3 0 0 1 3-3z" fill="#eeeefd" data-original="#cff09e" style="" class=""/><path d="m35 37h-8a2 2 0 0 1 -2-2 2 2 0 0 1 2-2h8a2 2 0 0 1 2 2 2 2 0 0 1 -2 2z" fill="#eeeefd" data-original="#79bd9a" style="" class=""/><path d="m43 53a8.986 8.986 0 0 1 10.949-8.783l-.549-3.017a12.105 12.105 0 0 1 -4.068-7.876l-.112-1.124a2 2 0 0 1 1.99-2.2h.154l-.364-2h-4v9.184a2.99 2.99 0 0 1 2 2.775 3.283 3.283 0 0 1 -1.566 2.824 13.038 13.038 0 0 0 -5.424 6.224 3.251 3.251 0 0 1 -3.01 1.993h-2a2.978 2.978 0 0 1 -2.221-1h-8.779v4a3 3 0 0 0 3 3h10.824a18 18 0 0 0 11.051-3.792l.268-.208z" fill="#eeeefd" data-original="#cff09e" style="" class=""/><path d="m55 26v2h-8v-4a2.006 2.006 0 0 1 2-2 4 4 0 0 0 4 4z" fill="#eeeefd" data-original="#cff09e" style="" class=""/><circle cx="47" cy="26" fill="#eeeefd" r="2" data-original="#79bd9a" style="" class=""/><path d="m61 53h-18a9 9 0 0 1 5.48-8.28 8 8 0 0 0 7.52 5.28h4.48a8.8 8.8 0 0 1 .52 3z" fill="#eeeefd" data-original="#cff09e" style="" class=""/><path d="m26 50v3h-18a11.962 11.962 0 0 1 3.51-8.49 11.06 11.06 0 0 1 1.58-1.32 8 8 0 0 0 7.91 6.81z" fill="#eeeefd" data-original="#cff09e" style="" class=""/></g></g></g><g id="Stroke_Close_copy" data-name="Stroke Close copy"><g id="Layer_5_copy_8" data-name="Layer 5 copy 8"><g fill="#3b8686"><path d="m8 21.816v1.184a3 3 0 0 0 3 3h6a3 3 0 0 0 3-3v-1.184a2.982 2.982 0 0 0 0-5.632v-1.184a3 3 0 0 0 -3-3h-6a3 3 0 0 0 -3 3v1.184a2.982 2.982 0 0 0 0 5.632zm9 2.184h-6a1 1 0 0 1 -1-1v-1h8v1a1 1 0 0 1 -1 1zm-6-10h6a1 1 0 0 1 1 1v1h-8v-1a1 1 0 0 1 1-1zm-2 4h1a1 1 0 0 0 2 0h1a1 1 0 0 0 2 0h1a1 1 0 0 0 2 0h1a1 1 0 0 1 0 2h-10a1 1 0 0 1 0-2z" fill="#001738" data-original="#3b8686" style="" class=""/><path d="m54.821 43.412-2.621-14.412h3.8a4 4 0 0 0 0-8h-7a2.993 2.993 0 0 0 -2.859 2.141 2.981 2.981 0 0 0 -.141 5.675v11.535a14.041 14.041 0 0 0 -7.407 8.649h-4.593v-11h1a3 3 0 0 0 0-6h-8a3 3 0 0 0 -3 3 2.966 2.966 0 0 0 .184 1h-.184a15.016 15.016 0 0 0 -4.013.556l-1.987-1.136v-1.42h2a3 3 0 0 0 3-3v-1h2a1 1 0 0 0 1-1v-16a5.006 5.006 0 0 0 -5-5h-14a5.006 5.006 0 0 0 -5 5v16a1 1 0 0 0 1 1h2v1a3 3 0 0 0 3 3h1v3a1 1 0 0 0 .4.8l3.773 2.83a15.152 15.152 0 0 0 -2.31 3.135 13.064 13.064 0 0 0 -2.384 3.235h-3.479a1 1 0 0 0 0 2h2.636a12.89 12.89 0 0 0 -.585 3h-4.051a1 1 0 0 0 0 2h7.086a6.79 6.79 0 0 0 2.024 6h-3.11a1 1 0 0 0 0 2h8a7.008 7.008 0 0 0 7-7 6.931 6.931 0 0 0 -.086-1h1.086a4 4 0 0 0 4 4h10.82a19.028 19.028 0 0 0 5.53-.841 6.99 6.99 0 0 0 1.778 2.841h-7.128a1 1 0 0 0 0 2h12a7.008 7.008 0 0 0 7-7 6.931 6.931 0 0 0 -.086-1h2.086a1 1 0 0 0 1-1 10.012 10.012 0 0 0 -7.179-9.588zm1.179-20.412a2 2 0 0 1 0 4zm-7 0h5v4h-4.184a2.943 2.943 0 0 0 -1.529-3.7 1 1 0 0 1 .713-.3zm-2 2a1 1 0 1 1 -1 1 1 1 0 0 1 1-1zm-21 10a1 1 0 0 1 1-1h8a1 1 0 0 1 0 2h-8a1 1 0 0 1 -1-1zm-22-22a3 3 0 0 1 3-3h14a3 3 0 0 1 3 3v15h-20zm3 18v-1h14v1a1 1 0 0 1 -1 1h-12a1 1 0 0 1 -1-1zm4 3h5v2a1 1 0 0 0 .5.868l1.051.6a14.99 14.99 0 0 0 -2.877 1.79l-3.674-2.758zm13 4h8v11h-5v-2a7.008 7.008 0 0 0 -7-7 12.945 12.945 0 0 0 -3.7.543 12.91 12.91 0 0 1 7.7-2.543zm-2 17a5 5 0 0 1 -10 0 4.827 4.827 0 0 1 .114-1h2.07a2.966 2.966 0 0 0 -.184 1 3 3 0 0 0 6 0 2.966 2.966 0 0 0 -.184-1h2.07a4.827 4.827 0 0 1 .114 1zm-4 0a1 1 0 1 1 -1-1 1 1 0 0 1 1 1zm-8.955-3a11.015 11.015 0 0 1 10.955-10 5.006 5.006 0 0 1 5 5v5zm19.955 4a2 2 0 0 1 -2-2v-3h12.36a1 1 0 0 0 .972-.769 12.031 12.031 0 0 1 7.052-8.308 1 1 0 0 0 .616-.923v-12h2.165l1.092 6h-.257a1 1 0 0 0 0 2h.621l.182 1h-.803a1 1 0 0 0 0 2h1.167l.553 3.036c-.239-.017-.477-.036-.72-.036a10.011 10.011 0 0 0 -10 10 1 1 0 0 0 1 1h4.818a17.107 17.107 0 0 1 -8 2zm24-1a1 1 0 1 1 -1-1 1 1 0 0 1 1 1zm4 0a4.991 4.991 0 0 1 -9.76 1.483 19.22 19.22 0 0 0 1.82-.886 3 3 0 0 0 5.94-.597 2.966 2.966 0 0 0 -.184-1h2.07a4.827 4.827 0 0 1 .114 1zm-12.938-3a8 8 0 0 1 15.876 0z" fill="#001738" data-original="#3b8686" style="" class=""/><path d="m48.4 48.2a1 1 0 0 0 1.2 1.6 4.051 4.051 0 0 1 4.794 0 1 1 0 1 0 1.2-1.6 6.083 6.083 0 0 0 -7.194 0z" fill="#001738" data-original="#3b8686" style="" class=""/><circle cx="29" cy="41" r="1" fill="#001738" data-original="#3b8686" style="" class=""/><circle cx="29" cy="44" r="1" fill="#001738" data-original="#3b8686" style="" class=""/><path d="m20 44h-2a1 1 0 0 0 0 2h2a1 1 0 0 0 0-2z" fill="#001738" data-original="#3b8686" style="" class=""/><path d="m20 48h-4a1 1 0 0 0 0 2h4a1 1 0 0 0 0-2z" fill="#001738" data-original="#3b8686" style="" class=""/><path d="m42 22a1 1 0 0 0 -1-1h-9a1 1 0 0 0 0 2h9a1 1 0 0 0 1-1z" fill="#001738" data-original="#3b8686" style="" class=""/><path d="m35 17a1 1 0 0 0 1 1h10a1 1 0 0 0 0-2h-10a1 1 0 0 0 -1 1z" fill="#001738" data-original="#3b8686" style="" class=""/><path d="m31 13h8a1 1 0 0 0 0-2h-8a1 1 0 0 0 0 2z" fill="#001738" data-original="#3b8686" style="" class=""/><path d="m40 28a1 1 0 0 0 -1-1h-5a1 1 0 0 0 0 2h5a1 1 0 0 0 1-1z" fill="#001738" data-original="#3b8686" style="" class=""/><path d="m9 57a1 1 0 0 0 -1-1h-3a1 1 0 0 0 0 2h3a1 1 0 0 0 1-1z" fill="#001738" data-original="#3b8686" style="" class=""/><path d="m3 44h5a1 1 0 0 0 0-2h-5a1 1 0 0 0 0 2z" fill="#001738" data-original="#3b8686" style="" class=""/><path d="m40 39h3a1 1 0 0 0 0-2h-3a1 1 0 0 0 0 2z" fill="#001738" data-original="#3b8686" style="" class=""/><path d="m36 42a1 1 0 0 0 0 2h2a1 1 0 0 0 0-2z" fill="#001738" data-original="#3b8686" style="" class=""/></g></g></g></g></g></svg>
