<?xml version="1.0"?>
<svg xmlns="http://www.w3.org/2000/svg" xmlns:xlink="http://www.w3.org/1999/xlink" xmlns:svgjs="http://svgjs.com/svgjs" version="1.1" width="512" height="512" x="0" y="0" viewBox="0 0 480 480" style="enable-background:new 0 0 512 512" xml:space="preserve" class=""><g><path xmlns="http://www.w3.org/2000/svg" d="m440 8h-400c-17.671875 0-32 14.328125-32 32v256c0 17.671875 14.328125 32 32 32h400c17.671875 0 32-14.328125 32-32v-256c0-17.671875-14.328125-32-32-32zm0 248c0 4.417969-3.582031 8-8 8h-384c-4.417969 0-8-3.582031-8-8v-208c0-4.417969 3.582031-8 8-8h384c4.417969 0 8 3.582031 8 8zm0 0" fill="#eeeefd" data-original="#a8dba8" style="" class=""/><path xmlns="http://www.w3.org/2000/svg" d="m112 376h256c8.835938 0 16 7.164062 16 16s-7.164062 16-16 16h-256c-8.835938 0-16-7.164062-16-16s7.164062-16 16-16zm0 0" fill="#eeeefd" data-original="#a8dba8" style="" class=""/><path xmlns="http://www.w3.org/2000/svg" d="m328 376h-176l24-48h128zm0 0" fill="#5956e9" data-original="#79bd9a" style="" class=""/><path xmlns="http://www.w3.org/2000/svg" d="m48 440h208c8.835938 0 16 7.164062 16 16v16h-240v-16c0-8.835938 7.164062-16 16-16zm0 0" fill="#5956e9" data-original="#79bd9a" style="" class=""/><path xmlns="http://www.w3.org/2000/svg" d="m400 424h48c8.835938 0 16 7.164062 16 16v32h-80v-32c0-8.835938 7.164062-16 16-16zm0 0" fill="#eeeefd" data-original="#a8dba8" style="" class=""/><path xmlns="http://www.w3.org/2000/svg" d="m165.921875 40-125.921875 125.921875v90.078125c0 4.417969 3.582031 8 8 8h18.398438l224-224zm0 0" fill="#eeeefd" data-original="#cff09e" style="" class=""/><path xmlns="http://www.w3.org/2000/svg" d="m432 264c4.417969 0 8-3.582031 8-8v-208c0-4.417969-3.582031-8-8-8h-384c-4.417969 0-8 3.582031-8 8v16h368c4.417969 0 8 3.582031 8 8v192zm0 0" fill="#eeeefd" data-original="#cff09e" style="" class=""/><g xmlns="http://www.w3.org/2000/svg" fill="#3b8686"><path d="m440 0h-400c-22.089844 0-40 17.910156-40 40v256c0 22.089844 17.910156 40 40 40h123.039062l-16 32h-35.039062c-13.253906 0-24 10.746094-24 24s10.746094 24 24 24h256c13.253906 0 24-10.746094 24-24s-10.746094-24-24-24h-35.039062l-16-32h123.039062c22.089844 0 40-17.910156 40-40v-256c0-22.089844-17.910156-40-40-40zm-64 392c0 4.417969-3.582031 8-8 8h-256c-4.417969 0-8-3.582031-8-8s3.582031-8 8-8h256c4.417969 0 8 3.582031 8 8zm-60.960938-24h-150.078124l16-32h118.078124zm148.960938-72c0 13.253906-10.746094 24-24 24h-400c-13.253906 0-24-10.746094-24-24v-256c0-13.253906 10.746094-24 24-24h400c13.253906 0 24 10.746094 24 24zm0 0" fill="#001738" data-original="#3b8686" style="" class=""/><path d="m432 32h-384c-8.835938 0-16 7.164062-16 16v208c0 8.835938 7.164062 16 16 16h384c8.835938 0 16-7.164062 16-16v-208c0-8.835938-7.164062-16-16-16zm-285.359375 16-98.640625 98.640625v-98.640625zm-98.640625 121.199219 121.199219-121.199219h101.839843l-208 208h-15.039062zm37.679688 86.800781 208-208h138.320312v208zm0 0" fill="#001738" data-original="#3b8686" style="" class=""/><path d="m104 288h-32c-4.417969 0-8 3.582031-8 8s3.582031 8 8 8h32c4.417969 0 8-3.582031 8-8s-3.582031-8-8-8zm0 0" fill="#001738" data-original="#3b8686" style="" class=""/><path d="m144 296c0 4.417969-3.582031 8-8 8s-8-3.582031-8-8 3.582031-8 8-8 8 3.582031 8 8zm0 0" fill="#001738" data-original="#3b8686" style="" class=""/><path d="m256 432h-208c-13.253906 0-24 10.746094-24 24v16c0 4.417969 3.582031 8 8 8h240c4.417969 0 8-3.582031 8-8v-16c0-13.253906-10.746094-24-24-24zm8 32h-224v-8c0-4.417969 3.582031-8 8-8h208c4.417969 0 8 3.582031 8 8zm0 0" fill="#001738" data-original="#3b8686" style="" class=""/><path d="m448 416h-48c-13.253906 0-24 10.746094-24 24v32c0 4.417969 3.582031 8 8 8h80c4.417969 0 8-3.582031 8-8v-32c0-13.253906-10.746094-24-24-24zm8 48h-64v-24c0-4.417969 3.582031-8 8-8h16v8c0 4.417969 3.582031 8 8 8s8-3.582031 8-8v-8h16c4.417969 0 8 3.582031 8 8zm0 0" fill="#001738" data-original="#3b8686" style="" class=""/><path d="m400 152c-4.417969 0-8 3.582031-8 8v32c0 13.253906-10.746094 24-24 24h-48c-4.417969 0-8 3.582031-8 8s3.582031 8 8 8h48c22.089844 0 40-17.910156 40-40v-32c0-4.417969-3.582031-8-8-8zm0 0" fill="#001738" data-original="#3b8686" style="" class=""/></g></g></svg>
