<?xml version="1.0"?>
<svg xmlns="http://www.w3.org/2000/svg" xmlns:xlink="http://www.w3.org/1999/xlink" xmlns:svgjs="http://svgjs.com/svgjs" version="1.1" width="512" height="512" x="0" y="0" viewBox="0 0 64 64" style="enable-background:new 0 0 512 512" xml:space="preserve" class=""><g><g xmlns="http://www.w3.org/2000/svg" id="Twotone"><g id="color_copy" data-name="color copy"><g><g><path d="m51 37h-5a6 6 0 0 1 -12 0h-5a10 10 0 0 0 -9.95 9.005 2.994 2.994 0 0 1 2.718 4.149 1.992 1.992 0 0 1 .732.536 2 2 0 1 1 0 2.62 1.992 1.992 0 0 1 -3.5-1.31v9h35v-6h7v-8a10 10 0 0 0 -10-10z" fill="#eeeefd" data-original="#79bd9a" style="" class=""/><path d="m40 4a12 12 0 0 1 12 12 0 0 0 0 1 0 0h-24a0 0 0 0 1 0 0 12 12 0 0 1 12-12z" fill="#5956e9" data-original="#a8dba8" style="" class=""/><path d="m46 34.529v-.316a10.966 10.966 0 0 1 -12 0v2.787a6 6 0 0 0 11.119 3.119 5.985 5.985 0 0 1 -8.355-2.193 10.883 10.883 0 0 0 9.236-3.397z" fill="#eeeefd" data-original="#cff09e" style="" class=""/><rect fill="#5956e9" height="4" rx="2" width="28" x="26" y="16" data-original="#a8dba8" style="" class=""/><path d="m44.2 12 .8-8.25a17.042 17.042 0 0 0 -10 0l.8 8.25z" fill="#5956e9" data-original="#a8dba8" style="" class=""/><path d="m44 35a11 11 0 0 1 -11-11v-1h18v-3h-22v5a10.981 10.981 0 0 0 15.629 9.968c-.209.012-.417.032-.629.032z" fill="#eeeefd" data-original="#cff09e" style="" class=""/><path d="m52 37h-6l-6 16v8h14v-10z" fill="#5956e9" data-original="#a8dba8" style="" class=""/><path d="m28 37h6l6 16v8h-14v-10z" fill="#5956e9" data-original="#a8dba8" style="" class=""/><g fill="#cff09e"><path d="m40 57h14v4h-14z" fill="#eeeefd" data-original="#cff09e" style="" class=""/><path d="m26 57h14v4h-14z" fill="#eeeefd" data-original="#cff09e" style="" class=""/></g></g><g><path d="m25 52a1.985 1.985 0 0 1 -1.5-.69 1.992 1.992 0 0 1 -3.5-1.31 2.99 2.99 0 0 1 -2.822-2.018c-.059.005-.117.018-.178.018a1.985 1.985 0 0 1 -1.5-.69 1.992 1.992 0 0 1 -3.5-1.31c0-.061.013-.119.018-.178a2.989 2.989 0 0 1 -1.84-1.84c-.059.005-.117.018-.178.018a1.987 1.987 0 0 1 -1-.277 1.978 1.978 0 0 1 -2.973-1.46 1.992 1.992 0 1 0 1.973 3.46 1.987 1.987 0 0 0 1 .277c.061 0 .119-.013.178-.018a2.989 2.989 0 0 0 1.84 1.84c-.005.059-.018.117-.018.178a1.992 1.992 0 0 0 3.5 1.31 1.985 1.985 0 0 0 1.5.69c.061 0 .119-.013.178-.018a2.99 2.99 0 0 0 2.822 2.018 1.992 1.992 0 0 0 3.5 1.31 1.992 1.992 0 0 0 3.5-1.31 1.905 1.905 0 0 0 -.027-.263 1.972 1.972 0 0 1 -.973.263z" fill="#eeeefd" data-original="#cff09e" style="" class=""/><g><rect fill="#5956e9" height="10" rx="2" transform="matrix(-.707 -.707 .707 -.707 13.37 49.186)" width="4" x="14.872" y="16.824" data-original="#a8dba8" style="" class=""/><path d="m15.072 32.752-6.18 2.648a1.474 1.474 0 0 1 -2.028-1.067l-.912 2.127a1.478 1.478 0 0 0 1.94 1.94l6.975-2.99a1.477 1.477 0 0 0 .462-2.4z" fill="#eeeefd" data-original="#cff09e" style="" class=""/></g><path d="m25.723 53a1.98 1.98 0 0 1 -3.223.31 1.98 1.98 0 0 1 -3.223-.31h-.277v-1a2.99 2.99 0 0 1 -2.822-2.018c-.059.005-.117.018-.178.018a1.985 1.985 0 0 1 -1.5-.69 1.98 1.98 0 0 1 -3.223-.31h-.277v-1.187a2.991 2.991 0 0 1 -1.822-1.831c-.059.005-.117.018-.178.018a1.987 1.987 0 0 1 -1-.277 1.971 1.971 0 0 1 -2.723-.723h-2.277v16h24v-8z" fill="#eeeefd" data-original="#79bd9a" style="" class=""/></g><g fill="#cff09e"><path d="m56 60a3 3 0 0 1 3-3h2v-2h-7v6h2z" fill="#eeeefd" data-original="#cff09e" style="" class=""/><g><path d="m29 25v-5h-1a3 3 0 0 0 0 6h1.05c-.029-.33-.05-.662-.05-1z" fill="#eeeefd" data-original="#000000" style="" class=""/><path d="m52 20h-1v5c0 .338-.021.67-.05 1h1.05a3 3 0 0 0 0-6z" fill="#eeeefd" data-original="#000000" style="" class=""/></g></g></g></g><g id="Stroke_Close_copy" data-name="Stroke Close copy"><g fill="#3b8686"><path d="m35.707 24.293a1 1 0 0 0 1.414-1.414 3 3 0 0 0 -4.242 0 1 1 0 0 0 1.414 1.414 1 1 0 0 1 1.414 0z" fill="#001738" data-original="#3b8686" style="" class=""/><path d="m44.293 24.293a1 1 0 0 1 1.414 0 1 1 0 0 0 1.414-1.414 3 3 0 0 0 -4.242 0 1 1 0 0 0 1.414 1.414z" fill="#001738" data-original="#3b8686" style="" class=""/><path d="m45.657 29.657a1 1 0 1 0 -1.414-1.414 6.008 6.008 0 0 1 -8.486 0 1 1 0 1 0 -1.414 1.414 8.01 8.01 0 0 0 11.314 0z" fill="#001738" data-original="#3b8686" style="" class=""/><path d="m49 50h-3a1 1 0 0 0 0 2h3a1 1 0 0 0 0-2z" fill="#001738" data-original="#3b8686" style="" class=""/><path d="m31 52h3a1 1 0 0 0 0-2h-3a1 1 0 0 0 0 2z" fill="#001738" data-original="#3b8686" style="" class=""/><path d="m52.417 36.1a.983.983 0 0 0 -.417-.1h-5v-1.273a12 12 0 0 0 4.819-7.727h.181a3.987 3.987 0 0 0 2.381-7.195 2.968 2.968 0 0 0 -1.411-4.63 12.981 12.981 0 0 0 -2.448-6.786l.407-1.017a1 1 0 0 0 -1.858-.744l-.021.055a12.975 12.975 0 0 0 -3.114-2.234l.059-.6a1 1 0 0 0 -.7-1.053 18.122 18.122 0 0 0 -10.588 0 1 1 0 0 0 -.7 1.053l.059.6a12.975 12.975 0 0 0 -3.116 2.234l-.021-.055a1 1 0 0 0 -1.858.744l.407 1.017a12.981 12.981 0 0 0 -2.448 6.786 2.968 2.968 0 0 0 -1.411 4.63 3.987 3.987 0 0 0 2.381 7.195h.181a12 12 0 0 0 4.819 7.727v1.273h-5a.982.982 0 0 0 -.414.1 10.933 10.933 0 0 0 -9.411 8.986 4.008 4.008 0 0 0 -.8.256 2.971 2.971 0 0 0 -1.375-.342 4 4 0 0 0 -5.62-3.658 2.967 2.967 0 0 0 -2.38-.164 2.937 2.937 0 0 0 -1-.178 3 3 0 0 0 -3 3h-1a1 1 0 0 0 -1 1v16a1 1 0 0 0 1 1h24a1 1 0 0 0 1-1v-3h11v3a1 1 0 0 0 2 0v-3h12v3a1 1 0 0 0 2 0v-5h5v5a1 1 0 0 0 2 0v-14a11.009 11.009 0 0 0 -9.583-10.9zm-12.417 14.052-2.482-6.619a6.829 6.829 0 0 0 4.964 0zm12-25.152v-4a2 2 0 0 1 0 4zm-20.929-12.628a1 1 0 0 0 1.858-.744l-1.163-2.907a10.984 10.984 0 0 1 2.509-2.1l.535 5.479a1 1 0 0 0 1.99-.2l-.724-7.416a16.108 16.108 0 0 1 7.848 0l-.724 7.416a1 1 0 0 0 .9 1.1.788.788 0 0 0 .1.005 1 1 0 0 0 .994-.9l.535-5.476a10.984 10.984 0 0 1 2.509 2.1l-1.163 2.907a1 1 0 0 0 1.858.744l.683-1.708a10.982 10.982 0 0 1 1.333 4.328h-21.9a10.982 10.982 0 0 1 1.337-4.336zm-4.071 5.628a1 1 0 0 1 1-1h24a1 1 0 0 1 0 2h-24a1 1 0 0 1 -1-1zm-1 5a2 2 0 0 1 2-2v4a2 2 0 0 1 -2-2zm4 2v-4h20v4a10 10 0 0 1 -20 0zm10 12a11.916 11.916 0 0 0 5-1.1v.923l-1.339 3.57a4.963 4.963 0 0 1 -7.322 0l-1.339-3.575v-.918a11.916 11.916 0 0 0 5 1.1zm-6.693 1 5.693 15.181v2.819h-11v-3a1 1 0 0 0 -1-1 3.006 3.006 0 0 0 -.079-.662.971.971 0 0 0 .069-.2l1.876-13.136c.045 0 .089-.006.134-.006zm-13.307 18v-1.175a2.955 2.955 0 0 0 2.5-.233 2.957 2.957 0 0 0 3.5-.372v1.78zm-8-5.177a2.942 2.942 0 0 0 2.5-.231 2.986 2.986 0 0 0 1.027.37 3.982 3.982 0 0 0 .873 1.038h-4.4zm-2 1.177h-6v-2h6zm-6 2h6v2h-6zm8 0h6v2h-6zm14.807-15.724-1.571 11a2.937 2.937 0 0 0 -2.24-.1c0-.058 0-.117 0-.176a3.992 3.992 0 0 0 -2.817-3.8 8.943 8.943 0 0 1 6.628-6.924zm-19.307 4.865a1 1 0 0 0 1.008 0 1.033 1.033 0 0 1 1.155.117 1 1 0 0 0 1.225.082 2 2 0 0 1 2.775 2.776 1.022 1.022 0 0 0 .06 1.2 1 1 0 0 0 .76.376 1.029 1.029 0 0 0 .774-.342.973.973 0 0 1 1.406-.09 1 1 0 0 0 1.225.082 1.984 1.984 0 0 1 1.1-.338h.058a2 2 0 0 1 1.8 2.764 1 1 0 0 0 .539 1.309.963.963 0 0 1 .361.269 1 1 0 0 0 1.507 0 .988.988 0 0 1 .747-.346 1 1 0 0 1 0 2 .988.988 0 0 1 -.747-.348 1 1 0 0 0 -1.506 0 .988.988 0 0 1 -.747.348 1 1 0 0 1 -1-1 1 1 0 0 0 -1-1 2 2 0 0 1 -1.878-1.347 1.109 1.109 0 0 0 -1.122-.653.988.988 0 0 1 -.747-.348 1.034 1.034 0 0 0 -1.506 0 .992.992 0 0 1 -1.747-.631l.014-.118a1 1 0 0 0 -.668-1.026 1.98 1.98 0 0 1 -1.225-1.224 1.1 1.1 0 0 0 -1.121-.653.971.971 0 0 1 -.5-.141 1 1 0 0 0 -1.008 0 .995.995 0 1 1 0-1.718zm-3.5 2.859h.78a2.985 2.985 0 0 0 2.22 1 2.937 2.937 0 0 0 1-.178 2.871 2.871 0 0 0 .526.138 3.969 3.969 0 0 0 .857 1.04h-5.383zm0 12h6v2h-6zm8 0h6v2h-6zm14 2h-6v-2h6zm15-4v-2.819l5.693-15.181h4.307c.045 0 .089.006.134.007l1.866 13.064v4.929zm14-2v-3a.969.969 0 0 0 -.01-.142l-1.8-12.576a9.007 9.007 0 0 1 6.81 8.718v7z" fill="#001738" data-original="#3b8686" style="" class=""/><path d="m5.559 38.794a2.462 2.462 0 0 0 2.726.524l6.975-2.988a2.478 2.478 0 0 0 .776-4.029l-1.414-1.414a2.967 2.967 0 0 0 -.578-3.407.991.991 0 0 1 -.291-.717 3.026 3.026 0 0 0 1 .18 2.991 2.991 0 0 0 2.122-.878l4.242-4.242a3 3 0 0 0 0-4.242 3 3 0 0 0 -4.242 0l-4.243 4.242a3 3 0 0 0 -.508 3.535 3 3 0 0 0 .5 3.529l-.572-.572a2.477 2.477 0 0 0 -4.029.776l-2.99 6.975a2.462 2.462 0 0 0 .526 2.728zm8.484-15.556 4.243-4.238a1 1 0 0 1 1.414 0 1 1 0 0 1 0 1.414l-4.242 4.242a1 1 0 0 1 -1.414 0 1 1 0 0 1 -.001-1.418zm-7.172 13.617 2.989-6.975a.465.465 0 0 1 .349-.28.426.426 0 0 1 .1-.01.463.463 0 0 1 .333.14l1.285 1.286-.707.708a1 1 0 1 0 1.414 1.414l.707-.708 1.286 1.287a.477.477 0 0 1 -.149.775l-6.978 2.989a.47.47 0 0 1 -.524-.1.475.475 0 0 1 -.105-.526z" fill="#001738" data-original="#3b8686" style="" class=""/></g></g></g></g></svg>
