<?xml version="1.0"?>
<svg xmlns="http://www.w3.org/2000/svg" xmlns:xlink="http://www.w3.org/1999/xlink" xmlns:svgjs="http://svgjs.com/svgjs" version="1.1" width="512" height="512" x="0" y="0" viewBox="0 0 64 64" style="enable-background:new 0 0 512 512" xml:space="preserve" class=""><g><g xmlns="http://www.w3.org/2000/svg" id="Fill_Outline" data-name="Fill Outline"><g id="Color"><g><path d="m27 33.071-7.535-7.535a5 5 0 1 1 7.07-7.072l.465.465.465-.465a5 5 0 0 1 7.07 7.072z" fill="#eeeefd" data-original="#db3056" style="" class=""/><path d="m33.27 26.81-6.27 6.26-7.54-7.53a5.016 5.016 0 0 1 0-7.08 4.909 4.909 0 0 1 3.29-1.45 5.281 5.281 0 0 0 1.37 5.18l3.14 3.14a5.983 5.983 0 0 0 6.01 1.48z" fill="#5956e9" data-original="#af274b" style="" class=""/><path d="m27 3a22 22 0 0 0 -22 22c0 15 22 36 22 36s22-21 22-36a22 22 0 0 0 -22-22zm0 35a14 14 0 1 1 14-14 14 14 0 0 1 -14 14z" fill="#eeeefd" data-original="#db3056" style="" class=""/><path d="m41.14 43.72a12.958 12.958 0 0 1 -20.28 0c-5.77-7.28-11.86-16.83-11.86-24.72a21.712 21.712 0 0 1 1.95-9.05 21.924 21.924 0 0 0 -5.95 15.05c0 15 22 36 22 36s10.18-9.72 16.69-20.65c-.84 1.16-1.7 2.29-2.55 3.37z" fill="#5956e9" data-original="#af274b" style="" class=""/><path d="m49 35a10 10 0 0 0 -10 10c0 8 10 16 10 16s10-8 10-16a10 10 0 0 0 -10-10zm4.186 11.313-4.186 4.187-4.186-4.187a2.778 2.778 0 0 1 3.928-3.928l.258.258.258-.258a2.778 2.778 0 0 1 3.928 3.928z" fill="#eeeefd" data-original="#ff8b7b" style="" class=""/><path d="m45.26 48.16a14.5 14.5 0 0 1 -2.26-7.16 9.9 9.9 0 0 1 1.22-4.78 9.984 9.984 0 0 0 -5.22 8.78c0 8 10 16 10 16a36.507 36.507 0 0 0 8.04-9.37 9.011 9.011 0 0 1 -11.78-3.47z" fill="#5956e9" data-original="#ff6464" style="" class=""/></g></g><g id="Outline_copy" data-name="Outline copy"><g fill="#464a51"><path d="m25.828 19.172.465.464a1 1 0 0 0 1.414 0l.465-.465a4 4 0 0 1 4.286-.891 1 1 0 0 0 .729-1.863 6 6 0 0 0 -6.187 1.111 6 6 0 0 0 -8.242 8.715l7.535 7.535a1 1 0 0 0 1.414 0l7.535-7.535a6 6 0 0 0 1.341-6.43 1 1 0 0 0 -1.863.729 4 4 0 0 1 -.892 4.287l-6.828 6.828-6.828-6.828a4 4 0 0 1 0-5.658 4.1 4.1 0 0 1 5.656.001z" fill="#2b2942" data-original="#464a51" style="" class=""/><path d="m35.423 50.259c-3.623 4.452-7.011 7.93-8.423 9.341-3.7-3.7-21-21.677-21-34.6a20.993 20.993 0 0 1 35.443-15.235 1 1 0 1 0 1.377-1.451 22.993 22.993 0 0 0 -38.82 16.686c0 15.252 21.4 35.854 22.31 36.723a1 1 0 0 0 1.38 0 123.938 123.938 0 0 0 9.284-10.2 1 1 0 0 0 -1.551-1.263z" fill="#2b2942" data-original="#464a51" style="" class=""/><path d="m27 9a14.98 14.98 0 0 0 -12 23.972 1 1 0 0 0 1.6-1.2 12.871 12.871 0 0 1 -2.6-7.772 13 13 0 1 1 13 13 12.874 12.874 0 0 1 -7.772-2.6 1 1 0 1 0 -1.2 1.6 14.866 14.866 0 0 0 8.972 3 15 15 0 0 0 0-30z" fill="#2b2942" data-original="#464a51" style="" class=""/><path d="m58.174 38.936a1 1 0 0 0 -1.668 1.1 8.955 8.955 0 0 1 1.494 4.964c0 6.3-6.865 12.814-9 14.688-2.135-1.874-9-8.388-9-14.688a9 9 0 0 1 13.96-7.506 1 1 0 1 0 1.1-1.668 10.943 10.943 0 0 0 -6.06-1.826c-.345 0-.686.021-1.023.052a24.47 24.47 0 0 0 2.023-9.052 22.822 22.822 0 0 0 -4.413-13.541 1 1 0 1 0 -1.615 1.179 20.836 20.836 0 0 1 4.028 12.362 23.908 23.908 0 0 1 -2.411 9.548 11.015 11.015 0 0 0 -7.589 10.452c0 8.384 9.952 16.442 10.375 16.781a1 1 0 0 0 1.25 0c.423-.339 10.375-8.397 10.375-16.781a10.956 10.956 0 0 0 -1.826-6.064z" fill="#2b2942" data-original="#464a51" style="" class=""/><path d="m49 41.292a3.87 3.87 0 0 0 -4.894.386 3.784 3.784 0 0 0 0 5.343l4.187 4.186a1 1 0 0 0 1.414 0l4.187-4.186a3.784 3.784 0 0 0 0-5.343 3.868 3.868 0 0 0 -4.894-.386zm3.479 4.314-3.479 3.48-3.479-3.48a1.778 1.778 0 0 1 2.513-2.515l.258.259a1.03 1.03 0 0 0 1.416 0l.257-.258a1.822 1.822 0 0 1 2.514 0 1.778 1.778 0 0 1 0 2.514z" fill="#2b2942" data-original="#464a51" style="" class=""/></g></g></g></g></svg>
