<svg xmlns="http://www.w3.org/2000/svg" width="25" height="25" viewBox="0 0 25 25">
  <path id="Social_Icon:_instagram" data-name="Social Icon: instagram" d="M20.7,23.316a3.113,3.113,0,1,1-3.162,3.113A3.138,3.138,0,0,1,20.7,23.316Zm0-1.245a4.359,4.359,0,1,0,4.427,4.358A4.393,4.393,0,0,0,20.7,22.071Zm4.564-1.048a1.245,1.245,0,1,0,1.265,1.245,1.245,1.245,0,0,0-1.265-1.245ZM17.61,19.668h6.18a3.612,3.612,0,0,1,3.64,3.583v6.354a3.612,3.612,0,0,1-3.64,3.583H17.61a3.612,3.612,0,0,1-3.64-3.583V23.251A3.612,3.612,0,0,1,17.61,19.668Zm-.583-1.239a4.294,4.294,0,0,0-4.327,4.26v7.48a4.294,4.294,0,0,0,4.327,4.26h7.346a4.294,4.294,0,0,0,4.327-4.26v-7.48a4.294,4.294,0,0,0-4.327-4.26Zm3.673-4.5a12.5,12.5,0,1,1-12.5,12.5,12.5,12.5,0,0,1,12.5-12.5Z" transform="translate(-8.2 -13.929)" fill="#2b2942" fill-rule="evenodd"/>
</svg>
