<svg aria-hidden="true" width="184" height="29" version="1.1" id="Main_Logo_Black" xmlns="http://www.w3.org/2000/svg" x="0" y="0" viewBox="0 0 1180.4 186.6" xml:space="preserve"><style>.st0{fill:#2b2942}.st1{fill:#5956e9}</style><g id="Logo_Elements"><path id="x_-_Offerbox_Logo_1_" class="st0" d="M1146 172.5l-24.3-35.8-25 35.8c-3.6 5-6.7 8.6-9.2 10.7-2.5 2.1-5.7 3.2-9.5 3.2-4.3 0-7.9-1.3-10.9-4s-4.5-5.7-4.5-9.2 2.3-8.6 6.9-15.1l30.4-43.5-26.9-36.3c-4.7-6-7-11.2-7-15.6 0-3.4 1.4-6.4 4.2-9 2.8-2.5 6.4-3.8 10.9-3.8 3.9 0 7.2 1.1 9.8 3.3 2.6 2.2 5.6 5.7 9 10.4l21.8 29.8 21.1-29.8c3.5-4.9 6.6-8.4 9.2-10.6 2.6-2.1 5.8-3.2 9.7-3.2 4.4 0 8.1 1.2 11 3.7s4.4 5.5 4.4 9c0 2.5-.6 5-1.8 7.3s-3 5.1-5.5 8.3l-26.9 36.3 30.4 43.5c4.8 6.8 7.1 11.9 7.1 15.4s-1.5 6.6-4.4 9.1c-3 2.5-6.6 3.8-10.9 3.8-3.9 0-7.1-1.1-9.8-3.3-2.8-2.1-5.8-5.6-9.3-10.4z"/><path id="x_-_Offerbox_Logo" class="st0" d="M1014.9 172.5l-24.3-35.8-25 35.8c-3.6 5-6.7 8.6-9.2 10.7-2.5 2.1-5.7 3.2-9.5 3.2-4.3 0-7.9-1.3-10.9-4s-4.5-5.7-4.5-9.2 2.3-8.6 6.9-15.1l30.4-43.5-26.9-36.3c-4.7-6-7-11.2-7-15.6 0-3.4 1.4-6.4 4.2-9 2.8-2.5 6.4-3.8 10.9-3.8 3.9 0 7.2 1.1 9.8 3.3s5.6 5.7 9 10.4l21.8 29.8 21.1-29.8c3.5-4.9 6.6-8.4 9.2-10.6 2.6-2.1 5.8-3.2 9.7-3.2 4.4 0 8.1 1.2 11 3.7s4.4 5.5 4.4 9c0 2.5-.6 5-1.8 7.3s-3 5.1-5.5 8.3l-26.9 36.3 30.4 43.5c4.8 6.8 7.1 11.9 7.1 15.4s-1.5 6.6-4.4 9.1c-3 2.5-6.6 3.8-10.9 3.8-3.9 0-7.1-1.1-9.8-3.3-2.8-2.1-5.9-5.6-9.3-10.4z"/><path id="o_-_Offerbox_Logo" class="st0" d="M922 118.2c0 10-1.6 19.2-4.7 27.7-3.1 8.4-7.6 15.7-13.5 21.8s-12.9 10.7-21.1 14c-8.2 3.2-17.4 4.9-27.7 4.9-10.2 0-19.3-1.6-27.4-4.9-8.1-3.3-15.1-8-21.1-14.1-5.9-6.1-10.4-13.3-13.5-21.6s-4.6-17.5-4.6-27.6c0-10.2 1.6-19.5 4.7-27.9 3.1-8.4 7.6-15.7 13.4-21.6 5.8-6 12.9-10.6 21.1-13.8 8.3-3.2 17.4-4.9 27.4-4.9 10.2 0 19.4 1.6 27.7 4.9 8.3 3.3 15.4 7.9 21.3 14s10.4 13.3 13.5 21.6c2.9 8.2 4.5 17.4 4.5 27.5zm-33.7 0c0-13.7-3-24.3-9-32-6-7.6-14.1-11.4-24.3-11.4-6.6 0-12.3 1.7-17.3 5.1-5 3.4-8.9 8.4-11.6 15.1-2.7 6.6-4.1 14.4-4.1 23.2s1.3 16.4 4 23 6.5 11.6 11.4 15.1c5 3.5 10.8 5.2 17.5 5.2 10.2 0 18.3-3.8 24.3-11.5 6.1-7.7 9.1-18.3 9.1-31.8z"/><path id="b_-_Offerbox_Logo" class="st0" d="M670 19.2v51.3c6.3-6.6 12.7-11.6 19.3-15.1s14.7-5.2 24.3-5.2c11.1 0 20.9 2.6 29.3 7.9 8.4 5.3 14.9 12.9 19.5 23 4.6 10 6.9 21.9 6.9 35.7 0 10.2-1.3 19.5-3.9 28-2.6 8.5-6.3 15.8-11.3 22.1-4.9 6.2-10.9 11-17.9 14.4s-14.7 5.1-23.2 5.1c-5.2 0-10-.6-14.6-1.8-4.5-1.2-8.4-2.8-11.6-4.9-3.2-2-5.9-4.1-8.2-6.2-2.3-2.1-5.2-5.3-8.9-9.6v3.3c0 6.3-1.5 11.1-4.6 14.3-3 3.2-6.9 4.9-11.6 4.9-4.8 0-8.5-1.6-11.4-4.9-2.8-3.2-4.2-8-4.2-14.3V20.7c0-6.8 1.4-11.9 4.1-15.4S648.6.1 653.5.1c5.2 0 9.1 1.7 11.9 5 3.2 3.2 4.6 8 4.6 14.1zm1.6 99.7c0 13.4 3.1 23.6 9.2 30.8 6.1 7.2 14.1 10.8 24 10.8 8.4 0 15.7-3.7 21.8-11s9.2-17.8 9.2-31.5c0-8.9-1.3-16.5-3.8-22.9s-6.1-11.3-10.8-14.8-10.1-5.2-16.3-5.2c-6.4 0-12.1 1.7-17.1 5.2s-8.9 8.5-11.8 15.1c-3 6.5-4.4 14.4-4.4 23.5z"/><path id="r_-_Offerbox_Logo" class="st0" d="M562 137.9v28c0 6.8-1.6 11.9-4.8 15.3-3.2 3.4-7.3 5.1-12.2 5.1-4.8 0-8.8-1.7-11.9-5.2-3.1-3.4-4.7-8.5-4.7-15.2V72.5c0-15.1 5.4-22.6 16.3-22.6 5.6 0 9.6 1.8 12 5.3 2.5 3.5 3.8 8.7 4.1 15.6 4-6.9 8.1-12.1 12.4-15.6 4.2-3.5 9.9-5.3 16.9-5.3s13.9 1.8 20.5 5.3 10 8.2 10 14c0 4.1-1.4 7.5-4.2 10.1-2.8 2.7-5.9 4-9.2 4-1.2 0-4.2-.8-8.9-2.3s-8.9-2.3-12.5-2.3c-4.9 0-8.9 1.3-12 3.9-3.1 2.6-5.5 6.4-7.3 11.5-1.7 5.1-2.9 11.1-3.6 18.1-.5 7.1-.9 15.7-.9 25.7z"/><path id="e_-_Offerbox_Logo" class="st0" d="M472.8 126.4h-65.6c.1 7.6 1.6 14.3 4.6 20.2 3 5.8 7 10.2 11.9 13.2 5 3 10.4 4.4 16.4 4.4 4 0 7.7-.5 11-1.4s6.5-2.4 9.6-4.4 6-4.2 8.6-6.5 6-5.4 10.2-9.3c1.7-1.5 4.2-2.2 7.4-2.2 3.4 0 6.2.9 8.4 2.8 2.1 1.9 3.2 4.5 3.2 8 0 3-1.2 6.6-3.6 10.6-2.4 4.1-6 8-10.8 11.7s-10.8 6.8-18.1 9.3c-7.3 2.5-15.6 3.7-25 3.7-21.6 0-38.3-6.1-50.3-18.4-12-12.3-17.9-29-17.9-50 0-9.9 1.5-19.1 4.4-27.6s7.3-15.8 12.9-21.8 12.6-10.7 20.9-14c8.3-3.2 17.5-4.9 27.5-4.9 13.1 0 24.4 2.8 33.7 8.3 9.4 5.5 16.4 12.7 21.1 21.4 4.7 8.8 7 17.7 7 26.8 0 8.4-2.4 13.9-7.3 16.4-4.6 2.4-11.4 3.7-20.2 3.7zm-65.6-19.1H468c-.8-11.5-3.9-20.1-9.3-25.8S446.3 73 437.5 73c-8.4 0-15.2 2.9-20.6 8.7-5.3 5.8-8.6 14.3-9.7 25.6z"/><path id="f_-_Offerbox_Logo" class="st0" d="M295.9 52.9h8V42.8c0-10.5 1.3-18.8 4-25s7.2-10.7 13.5-13.5c6.4-2.8 15.1-4.2 26.1-4.2 19.6 0 29.4 4.8 29.4 14.4 0 3.1-1 5.8-3.1 8s-4.5 3.3-7.3 3.3c-1.3 0-3.6-.2-6.8-.7-3.2-.5-5.9-.7-8.1-.7-6.1 0-10 1.8-11.7 5.3-1.7 3.6-2.6 8.7-2.6 15.3v8h8.2c12.8 0 19.2 3.9 19.2 11.6 0 5.5-1.7 9-5.1 10.4-3.4 1.5-8.1 2.2-14.1 2.2h-8.2v88.9c0 6.6-1.6 11.7-4.7 15.2-3.2 3.5-7.2 5.2-12.2 5.2-4.8 0-8.7-1.7-11.9-5.2-3.2-3.5-4.7-8.5-4.7-15.2V77.2h-9.2c-5 0-8.9-1.1-11.6-3.4-2.7-2.3-4.1-5.2-4.1-8.8.2-8.1 5.8-12.1 17-12.1z"/><path id="f_-_Offerboxx" class="st0" d="M202.8 52.9h8V42.8c0-10.5 1.3-18.8 4-25S222 7.1 228.3 4.3c6.4-2.8 15.1-4.2 26.1-4.2 19.6 0 29.4 4.8 29.4 14.4 0 3.1-1 5.8-3.1 8-2 2.2-4.5 3.3-7.3 3.3-1.3 0-3.6-.2-6.8-.7-3.2-.5-5.9-.7-8.1-.7-6.1 0-10 1.8-11.7 5.3-1.7 3.6-2.6 8.7-2.6 15.3v8h8.2c12.8 0 19.2 3.9 19.2 11.6 0 5.5-1.7 9-5.1 10.4-3.4 1.5-8.1 2.2-14.1 2.2h-8.2v88.9c0 6.6-1.6 11.7-4.7 15.2-3.2 3.5-7.2 5.2-12.2 5.2-4.8 0-8.7-1.7-11.9-5.2s-4.7-8.5-4.7-15.2V77.2h-9.2c-5 0-8.9-1.1-11.6-3.4-2.7-2.3-4.1-5.2-4.1-8.8.1-8.1 5.7-12.1 17-12.1z"/><g id="O_-_Offerboxx"><path class="st1" d="M87.4 48c-14.2 0-25.6 11.4-25.6 25.5S73.3 99 87.4 99c14.2 0 25.6-11.4 25.6-25.5 0-14-11.5-25.5-25.6-25.5z"/><path class="st1" d="M166.2 43.7c-6.9-14-17-24.7-30.4-32.3C122.4 3.8 106.4 0 87.7 0 73.9 0 61.6 2.2 50.8 6.5 40 10.8 30.8 17 23.3 25.1S10 43 6 54.6 0 78.9 0 92.7c0 13.5 1.9 26.1 5.7 37.7 3.8 11.6 9.4 21.6 16.9 29.9 7.5 8.3 16.8 14.7 27.9 19.2s23.8 6.8 37.9 6.8c14.2 0 26.8-2.2 37.7-6.6 11-4.4 20.2-10.8 27.8-19.2 7.5-8.4 13.2-18.2 17-29.6 3.8-11.4 5.7-24 5.7-38 0-18.8-3.5-35.2-10.4-49.2zm-33.4 55.4l-.4.6c-1.2 2-2.5 3.9-3.9 5.7l-40.1 57.5-39.5-56.7C41.5 97.4 37.1 86 37.1 73.6c0-28.2 22.9-51 51.3-51 28.3 0 51.3 22.8 51.3 51-.1 9.2-2.6 17.9-6.9 25.5z"/></g></g></svg>